<?xml version="1.0" encoding="UTF-8"?>
<svg width="32px" height="27px" viewBox="0 0 32 27" version="1.1" xmlns="http://www.w3.org/2000/svg" xmlns:xlink="http://www.w3.org/1999/xlink">
    <!-- Generator: Sketch 52.2 (67145) - http://www.bohemiancoding.com/sketch -->
    <title>icon-broadcast-on</title>
    <desc>Created with Sketch.</desc>
    <defs>
        <linearGradient x1="99.5129108%" y1="0%" x2="0%" y2="100%" id="linearGradient-1">
            <stop stop-color="#00D9FF" offset="0%"></stop>
            <stop stop-color="#208DFF" offset="100%"></stop>
        </linearGradient>
    </defs>
    <g id="Page-1" stroke="none" stroke-width="1" fill="none" fill-rule="evenodd">
        <g id="Buttons-On-Hover" transform="translate(-793.000000, -965.000000)" fill="url(#linearGradient-1)">
            <g id="action-tools" transform="translate(488.000000, 952.000000)">
                <g id="icon-broadcast-on" transform="translate(296.000000, 1.000000)">
                    <g id="icon" transform="translate(9.000000, 12.000000)">
                        <path d="M8.82177055,25.1205176 L7.79284484,26.835543 C3.11229048,24.0274546 0.192307692,19.0198295 0.192307692,13.5147727 C0.192307692,8.00939513 3.11224292,3.00174061 7.79284484,0.193623698 L8.82177055,1.90864903 C4.73554845,4.36016906 2.19230769,8.72179701 2.19230769,13.5147727 C2.19230769,18.30742 4.73559003,22.6690225 8.82177055,25.1205176 Z" id="Stroke-1" opacity="0.7"></path>
                        <path d="M9.05525135,19.4360663 L7.55597941,20.759767 C5.79534172,18.7656043 4.80753846,16.214369 4.80753846,13.5145833 C4.80753846,10.8145774 5.79559585,8.26332388 7.55675924,6.26863006 L9.05601,7.59235479 C7.61390676,9.22568106 6.80753846,11.3077969 6.80753846,13.5145833 C6.80753846,15.7212169 7.61369508,17.8033069 9.05525135,19.4360663 Z" id="Stroke-3" opacity="0.7"></path>
                        <path d="M24.2071552,26.835543 L23.1782295,25.1205176 C27.26441,22.6690225 29.8076923,18.30742 29.8076923,13.5147727 C29.8076923,8.72179701 27.2644515,4.36016906 23.1782295,1.90864903 L24.2071552,0.193623698 C28.8877571,3.00174061 31.8076923,8.00939513 31.8076923,13.5147727 C31.8076923,19.0198295 28.8877095,24.0274546 24.2071552,26.835543 Z" id="Stroke-5" opacity="0.7"></path>
                        <path d="M24.4437471,20.759859 L22.9446375,19.4359744 C24.3862396,17.8035666 25.1922692,15.7215719 25.1922692,13.5145833 C25.1922692,11.3074421 24.3860278,9.22542119 22.9438789,7.5924467 L24.4429673,6.26853815 C26.2043212,8.26295478 27.1922692,10.8142112 27.1922692,13.5145833 C27.1922692,16.2147354 26.2045754,18.7659733 24.4437471,20.759859 Z" id="Stroke-7" opacity="0.7"></path>
                        <path d="M16,19.1964394 C12.8138462,19.1964394 10.2307692,16.6525 10.2307692,13.5146212 C10.2307692,10.3767424 12.8138462,7.83280303 16,7.83280303 C19.1861538,7.83280303 21.7692308,10.3767424 21.7692308,13.5146212 C21.7692308,16.6525 19.1861538,19.1964394 16,19.1964394" id="Fill-9"></path>
                    </g>
                </g>
            </g>
        </g>
    </g>
</svg>