<?xml version="1.0" encoding="UTF-8"?>
<svg width="28px" height="28px" viewBox="0 0 28 28" version="1.1" xmlns="http://www.w3.org/2000/svg" xmlns:xlink="http://www.w3.org/1999/xlink">
    <!-- Generator: Sketch 49.3 (51167) - http://www.bohemiancoding.com/sketch -->
    <title>icon-settings-off</title>
    <desc>Created with Sketch.</desc>
    <defs>
        <linearGradient x1="0%" y1="100%" x2="100%" y2="0%" id="linearGradient-1">
            <stop stop-color="#B5B8C5" offset="0%"></stop>
            <stop stop-color="#FFFFFF" offset="100%"></stop>
        </linearGradient>
    </defs>
    <g id="Symbols" stroke="none" stroke-width="1" fill="none" fill-rule="evenodd">
        <g id="bg-footer" transform="translate(-180.000000, -964.000000)" fill="url(#linearGradient-1)">
            <g transform="translate(0.000000, -2.000000)" id="self-tools">
                <g transform="translate(20.000000, 954.000000)">
                    <g id="icon-settings-off" transform="translate(160.000000, 12.000000)">
                        <path d="M27.4886957,11.6997391 L23.8913043,11.1117391 C23.6806957,10.3898261 23.3927826,9.69591304 23.0324348,9.03913043 L25.1324348,6.04617391 C25.3022609,5.80452174 25.2730435,5.47521739 25.0642609,5.26582609 L22.6970435,2.89982609 C22.4858261,2.68921739 22.1534783,2.66182609 21.9112174,2.83652174 L18.9633043,4.9553913 C18.3004348,4.58895652 17.6004348,4.298 16.8742609,4.08678261 L16.2466957,0.504 C16.1955652,0.213043478 15.9429565,0 15.6471304,0 L12.2993043,0 C12.0010435,0 11.7466087,0.216086957 11.6985217,0.510695652 L11.1166087,4.074 C10.3861739,4.284 9.68495652,4.57191304 9.02452174,4.93347826 L6.08452174,2.83347826 C5.84165217,2.66 5.51113043,2.688 5.29991304,2.898 L2.93391304,5.264 C2.72513043,5.47278261 2.69591304,5.80147826 2.86573913,6.04313043 L4.93469565,9.00321739 C4.56643478,9.66973913 4.27304348,10.3752174 4.0593913,11.1093043 L0.510086957,11.7003478 C0.216695652,11.7490435 0.0012173913,12.0034783 0.0012173913,12.3005217 L0.0012173913,15.6483478 C0.0012173913,15.9435652 0.213043478,16.1961739 0.503391304,16.247913 L4.05269565,16.8773043 C4.26513043,17.6095652 4.55852174,18.3150435 4.928,18.9833913 L2.83347826,21.9130435 C2.6606087,22.1546957 2.688,22.4864348 2.898,22.6976522 L5.2646087,25.066087 C5.4733913,25.2748696 5.80269565,25.304087 6.04434783,25.1342609 L9.00869565,23.058 C9.674,23.4238261 10.3770435,23.7141739 11.1056522,23.9247826 L11.6997391,27.4923478 C11.7478261,27.7851304 12.0016522,28 12.2993043,28 L15.6471304,28 C15.9423478,28 16.1949565,27.7881739 16.246087,27.4978261 L16.8821739,23.9126087 C17.612,23.6977391 18.3113913,23.4055652 18.97,23.0391304 L21.9556522,25.1336522 C22.197913,25.3046957 22.5266087,25.2748696 22.736,25.066087 L25.1026087,22.6976522 C25.3132174,22.4864348 25.3406087,22.1534783 25.165913,21.9112174 L23.0366957,18.9547826 C23.3976522,18.2973913 23.6843478,17.6022609 23.8931304,16.8803478 L27.4953913,16.247913 C27.7869565,16.1967826 27.9987826,15.9435652 27.9987826,15.6483478 L27.9987826,12.3005217 C27.9993913,12.0022609 27.7833043,11.7478261 27.4886957,11.6997391 Z M14,18.2608696 C11.6467826,18.2608696 9.73913043,16.3532174 9.73913043,14 C9.73913043,11.6467826 11.6467826,9.73913043 14,9.73913043 C16.3532174,9.73913043 18.2608696,11.6467826 18.2608696,14 C18.2608696,16.3532174 16.3532174,18.2608696 14,18.2608696 Z" id="Shape"></path>
                    </g>
                </g>
            </g>
        </g>
    </g>
</svg>