<?xml version="1.0" encoding="utf-8"?>
<!-- Generator: Adobe Illustrator 22.1.0, SVG Export Plug-In . SVG Version: 6.00 Build 0)  -->
<svg version="1.1" id="Layer_1" xmlns="http://www.w3.org/2000/svg" xmlns:xlink="http://www.w3.org/1999/xlink" x="0px" y="0px"
	 viewBox="0 0 24 24" style="enable-background:new 0 0 24 24;" xml:space="preserve">
<style type="text/css">
	.st0{opacity:0.5;}
	.st1{fill:url(#Fill-1_1_);}
	.st2{fill:url(#Fill-3_1_);}
	.st3{fill:url(#Rectangle_1_);}
	.st4{opacity:0.7;fill:url(#Fill-1_3_);enable-background:new    ;}
	.st5{fill:url(#Fill-3_3_);enable-background:new    ;}
</style>
<g id="Page-1_1_">
	<g id="Buttons-On_x2F_Hover" transform="translate(-33.000000, -965.000000)">
		<g id="self-tools" transform="translate(20.000000, 952.000000)">
			<g id="icon-mute-on">
				<g id="Page-1" transform="translate(15.816327, 13.775510)" class="st0">
					
						<linearGradient id="Fill-1_1_" gradientUnits="userSpaceOnUse" x1="-472.1342" y1="492.8475" x2="-473.1329" y2="491.8488" gradientTransform="matrix(17.3469 0 0 -15.8219 8205.9775 7803.417)">
						<stop  offset="0" style="stop-color:#F54EA2"/>
						<stop  offset="1" style="stop-color:#FD4A51"/>
					</linearGradient>
					<path id="Fill-1" class="st1" d="M15.7,7.4V10c0,3.6-2.9,6.6-6.6,6.6S2.6,13.6,2.6,10V7.4H0.5V10c0,4.4,3.3,8,7.5,8.6v4.7h2.1
						v-4.7c4.4-0.4,7.8-4.1,7.8-8.6V7.4H15.7z"/>
					
						<linearGradient id="Fill-3_1_" gradientUnits="userSpaceOnUse" x1="-448.6266" y1="491.5" x2="-449.6253" y2="490.5013" gradientTransform="matrix(9.5707 0 0 -15.2248 4307.6338 7482.2188)">
						<stop  offset="0" style="stop-color:#F54EA2"/>
						<stop  offset="1" style="stop-color:#FD4A51"/>
					</linearGradient>
					<path id="Fill-3" class="st2" d="M9.2,14.4c2.6,0,4.8-2.1,4.8-4.8V4c0-2.6-2.1-4.8-4.8-4.8S4.4,1.4,4.4,4v5.7
						C4.4,12.3,6.5,14.4,9.2,14.4"/>
				</g>
				
					<linearGradient id="Rectangle_1_" gradientUnits="userSpaceOnUse" x1="-484.5443" y1="514.4831" x2="-485.543" y2="513.4844" gradientTransform="matrix(1.4142 -1.4142 -21.2132 -21.2132 11614.1973 10241.9961)">
					<stop  offset="0" style="stop-color:#F54EA2"/>
					<stop  offset="1" style="stop-color:#FD4A51"/>
				</linearGradient>
				<polygon id="Rectangle" class="st3" points="13.7,14.8 15.1,13.4 36.3,34.6 34.9,36 				"/>
			</g>
		</g>
	</g>
</g>
<g id="Symbols_1_">
	<g id="bg-footer_1_" transform="translate(-33.000000, -965.000000)">
		<g id="self-tools_2_" transform="translate(0.000000, -2.000000)">
			<g transform="translate(20.000000, 954.000000)">
				<g id="icon-mute-off_1_" transform="translate(13.000000, 13.000000)">
					
						<linearGradient id="Fill-1_3_" gradientUnits="userSpaceOnUse" x1="-466.2837" y1="492.5544" x2="-465.1611" y2="493.677" gradientTransform="matrix(17.3469 0 0 -15.8219 8159.939 7816.4624)">
						<stop  offset="0" style="stop-color:#B5B8C5"/>
						<stop  offset="1" style="stop-color:#FFFFFF"/>
					</linearGradient>
					<path id="Fill-1_2_" class="st4" d="M90.7,7.6v2.8c0,4.1-3.3,7.4-7.4,7.4c-4.1,0-7.4-3.3-7.4-7.4V7.6h-2.4v2.8
						c0,4.9,3.7,9,8.4,9.6v5.3h2.4v-5.2c4.9-0.5,8.7-4.6,8.7-9.7V7.6H90.7z"/>
					
						<linearGradient id="Fill-3_3_" gradientUnits="userSpaceOnUse" x1="-439.4243" y1="491.2619" x2="-438.3007" y2="492.3835" gradientTransform="matrix(9.5707 0 0 -15.2248 4283.4961 7494.8013)">
						<stop  offset="0" style="stop-color:#B5B8C5"/>
						<stop  offset="1" style="stop-color:#FFFFFF"/>
					</linearGradient>
					<path id="Fill-3_2_" class="st5" d="M83.3,15.4c3,0,5.4-2.4,5.4-5.4V3.7c0-3-2.4-5.4-5.4-5.4s-5.4,2.4-5.4,5.4v6.4
						C77.9,13,80.3,15.4,83.3,15.4"/>
				</g>
			</g>
		</g>
	</g>
</g>
</svg>
