<?xml version="1.0" encoding="utf-8"?>
<!-- Generator: Adobe Illustrator 22.1.0, SVG Export Plug-In . SVG Version: 6.00 Build 0)  -->
<svg version="1.1" id="Layer_1" xmlns="http://www.w3.org/2000/svg" xmlns:xlink="http://www.w3.org/1999/xlink" x="0px" y="0px"
	 viewBox="0 0 24 24" style="enable-background:new 0 0 24 24;" xml:space="preserve">
<style type="text/css">
	.st0{opacity:0.7;fill:url(#Fill-1_1_);enable-background:new    ;}
	.st1{fill:url(#Fill-3_1_);enable-background:new    ;}
</style>
<g id="Symbols_1_">
	<g id="bg-footer_1_" transform="translate(-33.000000, -965.000000)">
		<g id="self-tools_2_" transform="translate(0.000000, -2.000000)">
			<g transform="translate(20.000000, 954.000000)">
				<g id="icon-mute-off_1_" transform="translate(13.000000, 13.000000)">
					
						<linearGradient id="Fill-1_1_" gradientUnits="userSpaceOnUse" x1="-470.316" y1="492.6243" x2="-469.3173" y2="493.623" gradientTransform="matrix(17.3469 0 0 -15.8219 8159.939 7816.4624)">
						<stop  offset="0" style="stop-color:#B5B8C5"/>
						<stop  offset="1" style="stop-color:#FFFFFF"/>
					</linearGradient>
					<path id="Fill-1_2_" class="st0" d="M18.6,8.2v2.5c0,3.6-2.9,6.6-6.6,6.6s-6.6-2.9-6.6-6.6V8.2H3.3v2.5c0,4.4,3.3,8,7.5,8.6V24
						h2.1v-4.7c4.4-0.4,7.8-4.1,7.8-8.6V8.2H18.6z"/>
					
						<linearGradient id="Fill-3_1_" gradientUnits="userSpaceOnUse" x1="-446.8083" y1="491.2772" x2="-445.8087" y2="492.2751" gradientTransform="matrix(9.5707 0 0 -15.2248 4283.4961 7494.8013)">
						<stop  offset="0" style="stop-color:#B5B8C5"/>
						<stop  offset="1" style="stop-color:#FFFFFF"/>
					</linearGradient>
					<path id="Fill-3_2_" class="st1" d="M12,15.2c2.6,0,4.8-2.1,4.8-4.8V4.8C16.8,2.1,14.6,0,12,0S7.2,2.1,7.2,4.8v5.7
						C7.2,13.1,9.4,15.2,12,15.2"/>
				</g>
			</g>
		</g>
	</g>
</g>
</svg>
