<?xml version="1.0" encoding="UTF-8"?>
<svg width="28px" height="28px" viewBox="0 0 28 28" version="1.1" xmlns="http://www.w3.org/2000/svg" xmlns:xlink="http://www.w3.org/1999/xlink">
    <!-- Generator: Sketch 49.3 (51167) - http://www.bohemiancoding.com/sketch -->
    <title>icon-settings-on</title>
    <desc>Created with Sketch.</desc>
    <defs>
        <linearGradient x1="100%" y1="0%" x2="0%" y2="100%" id="linearGradient-1">
            <stop stop-color="#C0E249" offset="0%"></stop>
            <stop stop-color="#48D57C" offset="100%"></stop>
        </linearGradient>
    </defs>
    <g id="Page-1" stroke="none" stroke-width="1" fill="none" fill-rule="evenodd">
        <g id="Buttons-On/Hover" transform="translate(-180.000000, -964.000000)" fill="url(#linearGradient-1)">
            <g id="self-tools" transform="translate(20.000000, 952.000000)">
                <g id="icon-settings-on" transform="translate(149.000000, 1.000000)">
                    <path d="M38.4886957,22.6997391 L34.8913043,22.1117391 C34.6806957,21.3898261 34.3927826,20.695913 34.0324348,20.0391304 L36.1324348,17.0461739 C36.3022609,16.8045217 36.2730435,16.4752174 36.0642609,16.2658261 L33.6970435,13.8998261 C33.4858261,13.6892174 33.1534783,13.6618261 32.9112174,13.8365217 L29.9633043,15.9553913 C29.3004348,15.5889565 28.6004348,15.298 27.8742609,15.0867826 L27.2466957,11.504 C27.1955652,11.2130435 26.9429565,11 26.6471304,11 L23.2993043,11 C23.0010435,11 22.7466087,11.216087 22.6985217,11.5106957 L22.1166087,15.074 C21.3861739,15.284 20.6849565,15.571913 20.0245217,15.9334783 L17.0845217,13.8334783 C16.8416522,13.66 16.5111304,13.688 16.299913,13.898 L13.933913,16.264 C13.7251304,16.4727826 13.695913,16.8014783 13.8657391,17.0431304 L15.9346957,20.0032174 C15.5664348,20.6697391 15.2730435,21.3752174 15.0593913,22.1093043 L11.510087,22.7003478 C11.2166957,22.7490435 11.0012174,23.0034783 11.0012174,23.3005217 L11.0012174,26.6483478 C11.0012174,26.9435652 11.2130435,27.1961739 11.5033913,27.247913 L15.0526957,27.8773043 C15.2651304,28.6095652 15.5585217,29.3150435 15.928,29.9833913 L13.8334783,32.9130435 C13.6606087,33.1546957 13.688,33.4864348 13.898,33.6976522 L16.2646087,36.066087 C16.4733913,36.2748696 16.8026957,36.304087 17.0443478,36.1342609 L20.0086957,34.058 C20.674,34.4238261 21.3770435,34.7141739 22.1056522,34.9247826 L22.6997391,38.4923478 C22.7478261,38.7851304 23.0016522,39 23.2993043,39 L26.6471304,39 C26.9423478,39 27.1949565,38.7881739 27.246087,38.4978261 L27.8821739,34.9126087 C28.612,34.6977391 29.3113913,34.4055652 29.97,34.0391304 L32.9556522,36.1336522 C33.197913,36.3046957 33.5266087,36.2748696 33.736,36.066087 L36.1026087,33.6976522 C36.3132174,33.4864348 36.3406087,33.1534783 36.165913,32.9112174 L34.0366957,29.9547826 C34.3976522,29.2973913 34.6843478,28.6022609 34.8931304,27.8803478 L38.4953913,27.247913 C38.7869565,27.1967826 38.9987826,26.9435652 38.9987826,26.6483478 L38.9987826,23.3005217 C38.9993913,23.0022609 38.7833043,22.7478261 38.4886957,22.6997391 Z M25,29.2608696 C22.6467826,29.2608696 20.7391304,27.3532174 20.7391304,25 C20.7391304,22.6467826 22.6467826,20.7391304 25,20.7391304 C27.3532174,20.7391304 29.2608696,22.6467826 29.2608696,25 C29.2608696,27.3532174 27.3532174,29.2608696 25,29.2608696 Z" id="Shape"></path>
                </g>
            </g>
        </g>
    </g>
</svg>