<?xml version="1.0" encoding="utf-8"?>
<!-- Generator: Adobe Illustrator 22.1.0, SVG Export Plug-In . SVG Version: 6.00 Build 0)  -->
<svg version="1.1" id="Layer_1" xmlns="http://www.w3.org/2000/svg" xmlns:xlink="http://www.w3.org/1999/xlink" x="0px" y="0px"
	 viewBox="0 0 24 24" style="enable-background:new 0 0 24 24;" xml:space="preserve">
<style type="text/css">
	.st0{clip-path:url(#SVGID_2_);enable-background:new    ;}
	.st1{clip-path:url(#SVGID_4_);}
	.st2{clip-path:url(#SVGID_6_);enable-background:new    ;}
	.st3{clip-path:url(#SVGID_8_);fill:url(#SVGID_9_);}
	.st4{clip-path:url(#SVGID_11_);enable-background:new    ;}
	.st5{clip-path:url(#SVGID_13_);fill:url(#SVGID_14_);}
	.st6{clip-path:url(#SVGID_16_);enable-background:new    ;}
	.st7{clip-path:url(#SVGID_18_);fill:url(#SVGID_19_);}
	.st8{clip-path:url(#SVGID_21_);enable-background:new    ;}
	.st9{clip-path:url(#SVGID_23_);fill:url(#SVGID_24_);}
	.st10{clip-path:url(#SVGID_26_);enable-background:new    ;}
	.st11{clip-path:url(#SVGID_28_);}
	.st12{clip-path:url(#SVGID_30_);enable-background:new    ;}
	.st13{clip-path:url(#SVGID_32_);fill:#FFFFFF;}
</style>
<g>
	<defs>
		<path id="SVGID_1_" d="M10.5,8l4.9-4.2c0.2-0.2,0.5,0,0.4,0.3v15.9c0,0.3-0.2,0.4-0.5,0.3l-4.9-4.2H7.1c-0.6,0-1.3-0.5-1.3-1.3
			V9.4C5.7,8.8,6.2,8,7.1,8H10.5z"/>
	</defs>
	<clipPath id="SVGID_2_">
		<use xlink:href="#SVGID_1_"  style="overflow:visible;"/>
	</clipPath>
	<g class="st0">
		<g>
			<defs>
				<rect id="SVGID_3_" x="5.5" y="3.2" width="10.6" height="17.7"/>
			</defs>
			<clipPath id="SVGID_4_">
				<use xlink:href="#SVGID_3_"  style="overflow:visible;"/>
			</clipPath>
			<g class="st1">
				<defs>
					<rect id="SVGID_5_" x="-1386.6" y="-28" width="1469.3" height="1044.8"/>
				</defs>
				<clipPath id="SVGID_6_">
					<use xlink:href="#SVGID_5_"  style="overflow:visible;"/>
				</clipPath>
				<g class="st2">
					<g>
						<defs>
							<rect id="SVGID_7_" x="5.5" y="3.2" width="10.6" height="17.7"/>
						</defs>
						<clipPath id="SVGID_8_">
							<use xlink:href="#SVGID_7_"  style="overflow:visible;"/>
						</clipPath>
						
							<linearGradient id="SVGID_9_" gradientUnits="userSpaceOnUse" x1="-8.4275" y1="16.3431" x2="13.915" y2="27.1007" gradientTransform="matrix(1 0 0 -1 8.6318 33.8833)">
							<stop  offset="0" style="stop-color:#FF8F32"/>
							<stop  offset="0.9987" style="stop-color:#FFCA2D"/>
							<stop  offset="1" style="stop-color:#FFCA2D"/>
						</linearGradient>
						<rect x="0" y="-0.4" class="st3" width="24.4" height="24.4"/>
					</g>
				</g>
			</g>
		</g>
	</g>
</g>
<g>
	<defs>
		<path id="SVGID_10_" d="M19.6,12.2c0-1.3-0.3-2.6-1.1-3.5L19.3,8c0.9,1.2,1.3,2.7,1.3,4.1c0,1.5-0.5,2.9-1.3,4.1l-0.8-0.5
			C19.2,14.7,19.6,13.4,19.6,12.2z M20.9,6.9l0.8-0.5C23,8,23.7,10.1,23.7,12c0,2.1-0.7,4.2-1.9,5.8l-0.8-0.5
			c1.2-1.5,1.7-3.4,1.7-5.2C22.7,10.3,22.1,8.3,20.9,6.9z"/>
	</defs>
	<clipPath id="SVGID_11_">
		<use xlink:href="#SVGID_10_"  style="overflow:visible;"/>
	</clipPath>
	<g class="st4">
		<g>
			<defs>
				<rect id="SVGID_12_" x="17.9" y="6.1" width="5.9" height="11.8"/>
			</defs>
			<clipPath id="SVGID_13_">
				<use xlink:href="#SVGID_12_"  style="overflow:visible;"/>
			</clipPath>
			
				<linearGradient id="SVGID_14_" gradientUnits="userSpaceOnUse" x1="-8.0908" y1="16.5471" x2="14.2516" y2="27.3047" gradientTransform="matrix(1 0 0 -1 7.7672 34.4019)">
				<stop  offset="0" style="stop-color:#FF8F32"/>
				<stop  offset="0.9987" style="stop-color:#FFCA2D"/>
				<stop  offset="1" style="stop-color:#FFCA2D"/>
			</linearGradient>
			<rect x="-0.5" y="-0.1" class="st5" width="24.4" height="24.4"/>
		</g>
	</g>
</g>
<g>
	<defs>
		<path id="SVGID_15_" d="M6.6,4.6C5.5,5.2,4.7,6,4.2,7.2L3.3,6.8c0.6-1.3,1.5-2.2,3-3.1C7.7,2.9,9,2.6,10.4,2.8l-0.1,0.9
			C9,3.7,7.8,3.9,6.6,4.6z M1.3,6.2L0.5,5.8c1-2,2.3-3.6,4-4.5c1.8-0.9,4-1.5,6-1.2L10.4,1C8.6,0.8,6.6,1.2,5,2.1
			C3.4,3.1,2.2,4.5,1.3,6.2z"/>
	</defs>
	<clipPath id="SVGID_16_">
		<use xlink:href="#SVGID_15_"  style="overflow:visible;"/>
	</clipPath>
	<g class="st6">
		<g>
			<defs>
				<rect id="SVGID_17_" x="0.2" y="-0.4" width="10.6" height="7.7"/>
			</defs>
			<clipPath id="SVGID_18_">
				<use xlink:href="#SVGID_17_"  style="overflow:visible;"/>
			</clipPath>
			
				<linearGradient id="SVGID_19_" gradientUnits="userSpaceOnUse" x1="-8.4083" y1="16.5649" x2="13.934" y2="27.3224" gradientTransform="matrix(1 0 0 -1 8.6317 34.4019)">
				<stop  offset="0" style="stop-color:#FF8F32"/>
				<stop  offset="0.9987" style="stop-color:#FFCA2D"/>
				<stop  offset="1" style="stop-color:#FFCA2D"/>
			</linearGradient>
			<rect x="0" y="-0.1" class="st7" width="24.4" height="24.4"/>
		</g>
	</g>
</g>
<g>
	<defs>
		<path id="SVGID_20_" d="M10.2,22.9l0.1,1c-2,0.2-4.1-0.3-5.9-1.2c-1.7-1.1-3.3-2.8-4.1-4.6l0.8-0.4c0.7,1.8,2,3.2,3.7,4.1
			C6.4,22.8,8.3,23.2,10.2,22.9z M6.2,19.2c1.2,0.7,2.4,0.9,3.7,0.8l0.1,1.1c-1.4,0.2-3-0.2-4.2-0.9c-1.2-0.8-2.3-1.9-2.9-3.3
			l0.8-0.4C4.3,17.5,5.1,18.4,6.2,19.2z"/>
	</defs>
	<clipPath id="SVGID_21_">
		<use xlink:href="#SVGID_20_"  style="overflow:visible;"/>
	</clipPath>
	<g class="st8">
		<g>
			<defs>
				<rect id="SVGID_22_" x="0.2" y="16.2" width="10.6" height="8.3"/>
			</defs>
			<clipPath id="SVGID_23_">
				<use xlink:href="#SVGID_22_"  style="overflow:visible;"/>
			</clipPath>
			
				<linearGradient id="SVGID_24_" gradientUnits="userSpaceOnUse" x1="-8.0898" y1="16.6184" x2="14.2526" y2="27.376" gradientTransform="matrix(1 0 0 -1 7.7672 34.5747)">
				<stop  offset="0" style="stop-color:#FF8F32"/>
				<stop  offset="0.9987" style="stop-color:#FFCA2D"/>
				<stop  offset="1" style="stop-color:#FFCA2D"/>
			</linearGradient>
			<rect x="-0.5" y="0" class="st9" width="24.4" height="24.4"/>
		</g>
	</g>
</g>
<g>
	<defs>
		<path id="SVGID_25_" d="M12.8,11.3c0.1,0.1,0.2,0.4,0.2,0.8c0,0.4-0.1,0.7-0.3,0.9c-0.1,0.2-0.4,0.3-0.7,0.3h-0.2V11h0.3
			C12.4,11,12.7,11.1,12.8,11.3z M13.5,13.6c0.4-0.4,0.6-0.9,0.6-1.6c0-0.6-0.2-1.1-0.6-1.4c-0.3-0.3-0.8-0.5-1.5-0.5h-1.4v4.2h1.3
			C12.6,14.3,13.1,14.1,13.5,13.6z M9.8,11.6c0.1-0.2,0.2-0.4,0.2-0.7c0-0.3-0.1-0.4-0.3-0.6c-0.2-0.2-0.6-0.3-1-0.3
			c-0.3,0-0.6,0-0.8,0.1c-0.3,0-0.5,0.2-0.7,0.3l0.5,1c0.3-0.2,0.5-0.3,0.8-0.3c0.1,0,0.2,0,0.3,0.1c0.1,0,0.1,0.1,0.1,0.2
			c0,0.3-0.2,0.4-0.8,0.4H7.8v0.8h0.6c0.1,0,0.2,0,0.3,0.1c0.1,0.1,0.1,0.2,0.1,0.3c0,0.1-0.1,0.2-0.2,0.3c-0.1,0.1-0.3,0.1-0.5,0.1
			c-0.1,0-0.3-0.1-0.5-0.1c-0.1,0-0.3-0.1-0.5-0.2v0.9c0.2,0.1,0.4,0.2,0.6,0.2h0.6c0.6,0,1-0.1,1.3-0.3c0.3-0.2,0.5-0.5,0.5-0.9
			c0-0.6-0.3-0.9-1-1C9.4,11.9,9.7,11.8,9.8,11.6z"/>
	</defs>
	<clipPath id="SVGID_26_">
		<use xlink:href="#SVGID_25_"  style="overflow:visible;"/>
	</clipPath>
	<g class="st10">
		<g>
			<defs>
				<rect id="SVGID_27_" x="6.7" y="9.7" width="7.7" height="4.7"/>
			</defs>
			<clipPath id="SVGID_28_">
				<use xlink:href="#SVGID_27_"  style="overflow:visible;"/>
			</clipPath>
			<g class="st11">
				<defs>
					<rect id="SVGID_29_" x="-1386.6" y="-28" width="1469.3" height="1044.8"/>
				</defs>
				<clipPath id="SVGID_30_">
					<use xlink:href="#SVGID_29_"  style="overflow:visible;"/>
				</clipPath>
				<g class="st12">
					<g>
						<defs>
							<rect id="SVGID_31_" x="6.7" y="9.7" width="7.7" height="4.7"/>
						</defs>
						<clipPath id="SVGID_32_">
							<use xlink:href="#SVGID_31_"  style="overflow:visible;"/>
						</clipPath>
						<rect x="1.9" y="4.9" class="st13" width="17.2" height="14.5"/>
					</g>
				</g>
			</g>
		</g>
	</g>
</g>
</svg>
