<?xml version="1.0" encoding="UTF-8"?>
<svg width="16px" height="14px" viewBox="0 0 16 14" version="1.1" xmlns="http://www.w3.org/2000/svg" xmlns:xlink="http://www.w3.org/1999/xlink">
    <!-- Generator: Sketch 52.2 (67145) - http://www.bohemiancoding.com/sketch -->
    <title>icon-mute-sound-off</title>
    <desc>Created with Sketch.</desc>
    <g id="Symbols" stroke="none" stroke-width="1" fill="none" fill-rule="evenodd">
        <g id="user_label_dark" transform="translate(-154.000000, -9.000000)" fill="#FFFFFF">
            <g id="icon-mute-sound-off">
                <g transform="translate(154.000000, 9.000000)">
                    <g id="Group">
                        <path d="M8.10670253,13.9018082 L3.98739873,10.434411 L1.13929747,10.434411 C0.510056962,10.434411 5.69620253e-05,9.91909589 5.69620253e-05,9.28372603 L5.69620253e-05,4.6809863 C5.69620253e-05,4.04542466 0.510056962,3.53030137 1.13929747,3.53030137 L3.98739873,3.53030137 L8.10670253,0.0629041096 C8.28043671,-0.0832328767 8.54436076,0.0416164384 8.54436076,0.270027397 L8.54436076,13.6946849 C8.54436076,13.9230959 8.28043671,14.0479452 8.10670253,13.9018082" id="speaker"></path>
                        <path d="M10.4206208,3.60320343 L11.2260501,3.01051164 C12.0853862,4.17829318 12.556943,5.59290528 12.556943,7.0782274 C12.556943,8.56376735 12.0851812,9.97878567 11.2256357,11.1465656 L10.4202757,10.5537796 C11.1543137,9.5565143 11.556943,8.34885442 11.556943,7.0782274 C11.556943,5.8077833 11.1544959,4.60049175 10.4206208,3.60320343 Z" id="Path"></path>
                        <path d="M12.7943905,1.8621602 L13.5998754,1.26954391 C14.8267005,2.93704633 15.499981,4.95702532 15.499981,7.07820822 C15.499981,9.19990232 14.8264342,11.2201137 13.5990447,12.8875445 L12.7937021,12.2947349 C13.8955716,10.7978252 14.499981,8.98498209 14.499981,7.07820822 C14.499981,5.17187636 13.8957924,3.3591873 12.7943905,1.8621602 Z" id="Path"></path>
                    </g>
                </g>
            </g>
        </g>
    </g>
</svg>