<?xml version="1.0" encoding="UTF-8"?>
<svg width="17px" height="16px" viewBox="0 0 17 16" version="1.1" xmlns="http://www.w3.org/2000/svg" xmlns:xlink="http://www.w3.org/1999/xlink">
    <!-- Generator: Sketch 52.2 (67145) - http://www.bohemiancoding.com/sketch -->
    <title>icon-mute-sound-on</title>
    <desc>Created with Sketch.</desc>
    <defs>
        <linearGradient x1="100%" y1="0%" x2="0%" y2="100%" id="linearGradient-1">
            <stop stop-color="#F54EA2" offset="0%"></stop>
            <stop stop-color="#FD4A51" offset="100%"></stop>
        </linearGradient>
    </defs>
    <g id="Symbols" stroke="none" stroke-width="1" fill="none" fill-rule="evenodd">
        <g id="user_label_dark-muted" transform="translate(-153.000000, -8.000000)" fill="url(#linearGradient-1)">
            <g id="icon-mute-sound-on">
                <g transform="translate(149.000000, 3.000000)">
                    <g id="Group-2" transform="translate(4.000000, 5.000000)">
                        <g id="Group" opacity="0.7" transform="translate(1.000000, 1.000000)">
                            <path d="M3.2196412,3.53030137 L8.54436076,8.85502093 L8.54436076,13.6946849 C8.54436076,13.9230959 8.28043671,14.0479452 8.10670253,13.9018082 L3.98739873,10.434411 L1.13929747,10.434411 C0.510056962,10.434411 5.69620253e-05,9.91909589 5.69620253e-05,9.28372603 L5.69620253e-05,4.6809863 C5.69620253e-05,4.04542466 0.510056962,3.53030137 1.13929747,3.53030137 L3.2196412,3.53030137 Z M4.7223343,2.91167413 L8.10670253,0.0629041096 C8.28043671,-0.0832328767 8.54436076,0.0416164384 8.54436076,0.270027397 L8.54436076,6.73370059 L4.7223343,2.91167413 Z" id="speaker-2"></path>
                            <path d="M11.8766943,10.0660341 L11.1198008,9.30914067 C11.405767,8.61175806 11.556943,7.85681393 11.556943,7.0782274 C11.556943,5.8077833 11.1544959,4.60049175 10.4206208,3.60320343 L11.2260501,3.01051164 C12.0853862,4.17829318 12.556943,5.59290528 12.556943,7.0782274 C12.556943,8.13048049 12.320245,9.14735062 11.8766943,10.0660341 Z" id="Path-3"></path>
                            <path d="M14.0422049,12.2315447 L13.3133499,11.5026897 C14.0840889,10.1769735 14.499981,8.6599076 14.499981,7.07820822 C14.499981,5.17187636 13.8957924,3.3591873 12.7943905,1.8621602 L13.5998754,1.26954391 C14.8267005,2.93704633 15.499981,4.95702532 15.499981,7.07820822 C15.499981,8.92877174 14.9875797,10.7021322 14.0422049,12.2315447 Z" id="Path-2"></path>
                        </g>
                        <rect id="Rectangle" transform="translate(7.674621, 7.924621) rotate(-45.000000) translate(-7.674621, -7.924621) " x="6.9246212" y="-2.0753788" width="1.5" height="20"></rect>
                    </g>
                </g>
            </g>
        </g>
    </g>
</svg>