<?xml version="1.0" encoding="UTF-8" standalone="no"?>
<svg
   xmlns:dc="http://purl.org/dc/elements/1.1/"
   xmlns:cc="http://creativecommons.org/ns#"
   xmlns:rdf="http://www.w3.org/1999/02/22-rdf-syntax-ns#"
   xmlns:svg="http://www.w3.org/2000/svg"
   xmlns="http://www.w3.org/2000/svg"
   viewBox="0 0 32 32"
   height="32"
   width="32"
   xml:space="preserve"
   id="svg2"
   version="1.1"><metadata
     id="metadata8"><rdf:RDF><cc:Work
         rdf:about=""><dc:format>image/svg+xml</dc:format><dc:type
           rdf:resource="http://purl.org/dc/dcmitype/StillImage" /></cc:Work></rdf:RDF></metadata><defs
     id="defs6"><clipPath
       id="clipPath20"
       clipPathUnits="userSpaceOnUse"><path
         style="clip-rule:evenodd"
         id="path18"
         d="m 15.06667,19.78215 -4.8,-4.08604 H 6.933333 C 6.133333,15.69611 5.6,15.03707 5.6,14.37803 V 8.973913 C 5.6,8.183066 6.266667,7.655835 6.933333,7.655835 h 3.333337 l 4.8,-4.086041 c 0.26666,-0.131808 0.53333,0 0.53333,0.263616 v 15.68513 c 0,0.26361 -0.26667,0.52723 -0.53333,0.26361" /></clipPath><clipPath
       id="clipPath26"
       clipPathUnits="userSpaceOnUse"><path
         id="path24"
         d="M 0,0 H 24 V 24 H 0 Z" /></clipPath><linearGradient
       id="linearGradient34"
       gradientTransform="matrix(1,0,0,-1,5.6,19.89134)"
       gradientUnits="userSpaceOnUse"
       y2="1024"
       x2="0"
       y1="0"
       x1="0"><stop
         id="stop30"
         offset="0"
         style="stop-opacity:1;stop-color:#000a38" /><stop
         id="stop32"
         offset="1"
         style="stop-opacity:1;stop-color:#666c88" /></linearGradient><linearGradient
       id="linearGradient44"
       spreadMethod="pad"
       gradientTransform="matrix(1,0,0,-1,5.6,19.89134)"
       gradientUnits="userSpaceOnUse"
       y2="0"
       x2="10"
       y1="16.37326"
       x1="0"><stop
         id="stop40"
         offset="0"
         style="stop-opacity:1;stop-color:#000a38" /><stop
         id="stop42"
         offset="1"
         style="stop-opacity:1;stop-color:#666c88" /></linearGradient><clipPath
       id="clipPath54"
       clipPathUnits="userSpaceOnUse"><path
         style="clip-rule:evenodd"
         id="path52"
         d="m 18.13333,15.03707 c 0.8,-0.92265 1.06667,-2.10892 1.06667,-3.427 0,-1.18627 -0.4,-2.372541 -1.06667,-3.427004 l 0.8,-0.527231 c 0.8,1.18627 1.33334,2.504345 1.33334,3.954235 0,1.44988 -0.4,2.76796 -1.33334,3.95423 z m 3.2,2.24073 -0.8,-0.52723 c 1.06667,-1.44988 1.73334,-3.29519 1.73334,-5.1405 0,-1.84531 -0.53334,-3.558811 -1.73334,-5.140505 l 0.8,-0.527231 c 1.2,1.581693 1.86667,3.55881 1.86667,5.667736 0,2.10892 -0.66667,4.08604 -1.86667,5.66773 z" /></clipPath><clipPath
       id="clipPath60"
       clipPathUnits="userSpaceOnUse"><path
         id="path58"
         d="M 0,0 H 24 V 24 H 0 Z" /></clipPath><linearGradient
       id="linearGradient68"
       gradientTransform="matrix(1,0,0,-1,18.13333,17.2778)"
       gradientUnits="userSpaceOnUse"
       y2="1024"
       x2="0"
       y1="0"
       x1="0"><stop
         id="stop64"
         offset="0"
         style="stop-opacity:1;stop-color:#000a38" /><stop
         id="stop66"
         offset="1"
         style="stop-opacity:1;stop-color:#666c88" /></linearGradient><linearGradient
       id="linearGradient78"
       spreadMethod="pad"
       gradientTransform="matrix(1,0,0,-1,18.13333,17.2778)"
       gradientUnits="userSpaceOnUse"
       y2="0"
       x2="5.0666671"
       y1="11.33547"
       x1="0"><stop
         id="stop74"
         offset="0"
         style="stop-opacity:1;stop-color:#000a38" /><stop
         id="stop76"
         offset="1"
         style="stop-opacity:1;stop-color:#666c88" /></linearGradient><clipPath
       id="clipPath88"
       clipPathUnits="userSpaceOnUse"><path
         style="clip-rule:evenodd"
         id="path86"
         d="m 4.133333,16.48696 c 0.533334,1.18627 1.333334,1.97711 2.4,2.63615 C 7.6,19.78215 8.8,20.04577 10.13333,19.91396 l 0.13334,0.92265 C 8.8,20.96842 7.466667,20.70481 6.133333,19.91396 4.8,19.12311 3.866667,18.20046 3.2,16.88238 Z M 0.5333333,17.93684 1.333333,17.54142 c 0.8,1.7135 2,3.03158 3.6,3.95423 1.6,0.92266 3.466667,1.31808 5.333337,1.05446 L 10.4,23.47277 C 8.4,23.73638 6.266667,23.20915 4.533333,22.2865 2.8,21.36384 1.466667,19.91396 0.5333333,17.93684 Z" /></clipPath><clipPath
       id="clipPath94"
       clipPathUnits="userSpaceOnUse"><path
         id="path92"
         d="M 0,0 H 24 V 24 H 0 Z" /></clipPath><linearGradient
       id="linearGradient102"
       gradientTransform="matrix(1,0,0,-1,0.5333333,23.54063)"
       gradientUnits="userSpaceOnUse"
       y2="1024"
       x2="0"
       y1="0"
       x1="0"><stop
         id="stop98"
         offset="0"
         style="stop-opacity:1;stop-color:#000a38" /><stop
         id="stop100"
         offset="1"
         style="stop-opacity:1;stop-color:#666c88" /></linearGradient><linearGradient
       id="linearGradient112"
       spreadMethod="pad"
       gradientTransform="matrix(1,0,0,-1,0.5333333,23.54063)"
       gradientUnits="userSpaceOnUse"
       y2="0"
       x2="9.8666668"
       y1="7.0536718"
       x1="0"><stop
         id="stop108"
         offset="0"
         style="stop-opacity:1;stop-color:#000a38" /><stop
         id="stop110"
         offset="1"
         style="stop-opacity:1;stop-color:#666c88" /></linearGradient><clipPath
       id="clipPath122"
       clipPathUnits="userSpaceOnUse"><path
         style="clip-rule:evenodd"
         id="path120"
         d="m 9.733333,3.965217 c -1.2,-0.131807 -2.4,0.131808 -3.6,0.790847 -1.066666,0.659039 -1.866666,1.581693 -2.4,2.636156 l -0.8,-0.395424 c 0.533334,-1.318077 1.6,-2.37254 2.8,-3.163386 C 6.933333,3.174371 8.4,2.778947 9.866667,2.910755 Z M 10.13333,0.1427918 10,1.065446 C 8.133333,0.8018307 6.266667,1.197254 4.666667,2.119908 c -1.6,0.922655 -2.933334,2.240733 -3.6,3.954234 L 0.2666667,5.678719 C 1.066667,3.83341 2.533333,2.251716 4.266667,1.197254 6.133333,0.4064073 8.133333,-0.1208238 10.13333,0.1427918 Z" /></clipPath><clipPath
       id="clipPath128"
       clipPathUnits="userSpaceOnUse"><path
         id="path126"
         d="M 0,0 H 24 V 24 H 0 Z" /></clipPath><linearGradient
       id="linearGradient136"
       gradientTransform="matrix(1,0,0,-1,0.2666667,7.39222)"
       gradientUnits="userSpaceOnUse"
       y2="1024"
       x2="0"
       y1="0"
       x1="0"><stop
         id="stop132"
         offset="0"
         style="stop-opacity:1;stop-color:#000a38" /><stop
         id="stop134"
         offset="1"
         style="stop-opacity:1;stop-color:#666c88" /></linearGradient><linearGradient
       id="linearGradient146"
       spreadMethod="pad"
       gradientTransform="matrix(1,0,0,-1,0.2666667,7.39222)"
       gradientUnits="userSpaceOnUse"
       y2="0"
       x2="9.8666668"
       y1="7.3180022"
       x1="0"><stop
         id="stop142"
         offset="0"
         style="stop-opacity:1;stop-color:#000a38" /><stop
         id="stop144"
         offset="1"
         style="stop-opacity:1;stop-color:#666c88" /></linearGradient><clipPath
       id="clipPath156"
       clipPathUnits="userSpaceOnUse"><path
         style="clip-rule:evenodd"
         id="path154"
         d="m 9.758687,12.86082 c 0,-0.25408 -0.07753,-0.47219 -0.232592,-0.65434 C 9.371034,12.02433 9.146851,11.89215 8.853541,11.80995 V 11.79314 C 9.537308,11.7072 9.879186,11.384 9.879186,10.82354 9.879186,10.44242 9.72833,10.14258 9.426613,9.923998 9.124897,9.705417 8.705955,9.596128 8.169778,9.596128 c -0.22045,0 -0.424549,0.015879 -0.612305,0.047639 C 7.369717,9.675527 7.166552,9.73344 6.94797,9.81751 v 0.91916 c 0.179349,-0.09154 0.361965,-0.15927 0.547852,-0.20317 0.185887,-0.0439 0.357294,-0.06585 0.514224,-0.06585 0.242868,0 0.419879,0.03409 0.531038,0.10228 0.111158,0.06819 0.166737,0.17514 0.166737,0.32086 0,0.1121 -0.028957,0.1985 -0.086872,0.25922 -0.057914,0.06072 -0.151324,0.10649 -0.280231,0.13731 -0.128906,0.03083 -0.297043,0.04624 -0.504415,0.04624 H 7.584095 v 0.83229 h 0.257812 c 0.562333,0 0.843496,0.14385 0.843496,0.43155 0,0.10836 -0.041568,0.18869 -0.124703,0.241 -0.083136,0.05231 -0.19476,0.07846 -0.334876,0.07846 -0.261551,0 -0.532438,-0.0878 -0.81267,-0.26341 l -0.459579,0.73981 c 0.216713,0.14945 0.43856,0.25594 0.665549,0.31946 0.226988,0.06352 0.487133,0.09528 0.780443,0.09528 0.424085,0 0.756622,-0.08407 0.997622,-0.25221 0.241,-0.16814 0.361498,-0.39979 0.361498,-0.69497 z m 4.067633,-1.07329 c 0,-0.68376 -0.18822,-1.21059 -0.56467,-1.5805 C 12.88521,9.837125 12.35604,9.652174 11.67414,9.652174 h -1.32549 v 4.096976 h 1.41797 c 0.65761,0 1.16529,-0.16814 1.52305,-0.50441 0.35777,-0.33628 0.53665,-0.82201 0.53665,-1.45721 z M 12.67737,11.7483 c 0,0.37551 -0.07426,0.65387 -0.22278,0.83509 -0.14853,0.18122 -0.37411,0.27182 -0.67676,0.27182 h -0.32227 v -2.29509 h 0.24661 c 0.33627,0 0.58288,0.09762 0.73981,0.29284 0.15693,0.19523 0.23539,0.49368 0.23539,0.89534 z" /></clipPath><clipPath
       id="clipPath162"
       clipPathUnits="userSpaceOnUse"><path
         id="path160"
         d="M 0,0 H 24 V 24 H 0 Z" /></clipPath></defs><g
     transform="matrix(1.3333333,0,0,-1.3333333,0,32)"
     id="g10"><g
       id="g12" /><g
       id="g14"><g
         clip-path="url(#clipPath20)"
         id="g16"><g
           clip-path="url(#clipPath26)"
           id="g22"><g
             id="g28"><path
               id="path36"
               style="fill:url(#linearGradient34);stroke:none"
               d="M 0,0 H 24 V 24 H 0 Z" /></g><g
             id="g38"><path
               id="path46"
               style="fill:url(#linearGradient44);stroke:none"
               d="M 0,0 H 24 V 24 H 0 Z" /></g></g></g></g><g
       id="g48"><g
         clip-path="url(#clipPath54)"
         id="g50"><g
           clip-path="url(#clipPath60)"
           id="g56"><g
             id="g62"><path
               id="path70"
               style="fill:url(#linearGradient68);stroke:none"
               d="M 0,0 H 24 V 24 H 0 Z" /></g><g
             id="g72"><path
               id="path80"
               style="fill:url(#linearGradient78);stroke:none"
               d="M 0,0 H 24 V 24 H 0 Z" /></g></g></g></g><g
       id="g82"><g
         clip-path="url(#clipPath88)"
         id="g84"><g
           clip-path="url(#clipPath94)"
           id="g90"><g
             id="g96"><path
               id="path104"
               style="fill:url(#linearGradient102);stroke:none"
               d="M 0,0 H 24 V 24 H 0 Z" /></g><g
             id="g106"><path
               id="path114"
               style="fill:url(#linearGradient112);stroke:none"
               d="M 0,0 H 24 V 24 H 0 Z" /></g></g></g></g><g
       id="g116"><g
         clip-path="url(#clipPath122)"
         id="g118"><g
           clip-path="url(#clipPath128)"
           id="g124"><g
             id="g130"><path
               id="path138"
               style="fill:url(#linearGradient136);stroke:none"
               d="M 0,0 H 24 V 24 H 0 Z" /></g><g
             id="g140"><path
               id="path148"
               style="fill:url(#linearGradient146);stroke:none"
               d="M 0,0 H 24 V 24 H 0 Z" /></g></g></g></g><g
       id="g150"><g
         clip-path="url(#clipPath156)"
         id="g152"><g
           clip-path="url(#clipPath162)"
           id="g158"><path
             id="path164"
             style="fill:#ffffff;fill-opacity:1;fill-rule:nonzero;stroke:none"
             d="m 1.94797,4.596128 h 16.87835 v 14.21187 H 1.94797 Z" /></g></g></g></g></svg>