<?xml version="1.0" encoding="UTF-8"?>
<svg width="32px" height="27px" viewBox="0 0 32 27" version="1.1" xmlns="http://www.w3.org/2000/svg" xmlns:xlink="http://www.w3.org/1999/xlink">
    <!-- Generator: Sketch 52.2 (67145) - http://www.bohemiancoding.com/sketch -->
    <title>icon</title>
    <desc>Created with Sketch.</desc>
    <defs>
        <linearGradient x1="0%" y1="100%" x2="100%" y2="0%" id="linearGradient-1">
            <stop stop-color="#B5B8C5" offset="0%"></stop>
            <stop stop-color="#FFFFFF" offset="100%"></stop>
        </linearGradient>
    </defs>
    <g id="Page-1" stroke="none" stroke-width="1" fill="none" fill-rule="evenodd">
        <g id="Buttons-Off" transform="translate(-793.000000, -965.000000)" fill="url(#linearGradient-1)">
            <g id="bg-footer" transform="translate(0.000000, -1.000000)">
                <g id="action-tools" transform="translate(499.000000, 953.000000)">
                    <g id="icon" transform="translate(295.000000, 14.000000)">
                        <path d="M7.82177055,24.1205176 L6.79284484,25.835543 C2.11229048,23.0274546 -0.807692308,18.0198295 -0.807692308,12.5147727 C-0.807692308,7.00939513 2.11224292,2.00174061 6.79284484,-0.806376302 L7.82177055,0.908649029 C3.73554845,3.36016906 1.19230769,7.72179701 1.19230769,12.5147727 C1.19230769,17.30742 3.73559003,21.6690225 7.82177055,24.1205176 Z" id="Stroke-1" opacity="0.7"></path>
                        <path d="M8.05525135,18.4360663 L6.55597941,19.759767 C4.79534172,17.7656043 3.80753846,15.214369 3.80753846,12.5145833 C3.80753846,9.81457745 4.79559585,7.26332388 6.55675924,5.26863006 L8.05601,6.59235479 C6.61390676,8.22568106 5.80753846,10.3077969 5.80753846,12.5145833 C5.80753846,14.7212169 6.61369508,16.8033069 8.05525135,18.4360663 Z" id="Stroke-3" opacity="0.7"></path>
                        <path d="M23.2071552,25.835543 L22.1782295,24.1205176 C26.26441,21.6690225 28.8076923,17.30742 28.8076923,12.5147727 C28.8076923,7.72179701 26.2644515,3.36016906 22.1782295,0.908649029 L23.2071552,-0.806376302 C27.8877571,2.00174061 30.8076923,7.00939513 30.8076923,12.5147727 C30.8076923,18.0198295 27.8877095,23.0274546 23.2071552,25.835543 Z" id="Stroke-5" opacity="0.7"></path>
                        <path d="M23.4437471,19.759859 L21.9446375,18.4359744 C23.3862396,16.8035666 24.1922692,14.7215719 24.1922692,12.5145833 C24.1922692,10.3074421 23.3860278,8.22542119 21.9438789,6.5924467 L23.4429673,5.26853815 C25.2043212,7.26295478 26.1922692,9.81421118 26.1922692,12.5145833 C26.1922692,15.2147354 25.2045754,17.7659733 23.4437471,19.759859 Z" id="Stroke-7" opacity="0.7"></path>
                        <path d="M15,18.1964394 C11.8138462,18.1964394 9.23076923,15.6525 9.23076923,12.5146212 C9.23076923,9.37674242 11.8138462,6.83280303 15,6.83280303 C18.1861538,6.83280303 20.7692308,9.37674242 20.7692308,12.5146212 C20.7692308,15.6525 18.1861538,18.1964394 15,18.1964394" id="Fill-9"></path>
                    </g>
                </g>
            </g>
        </g>
    </g>
</svg>