<?xml version="1.0" encoding="UTF-8"?>
<svg width="50px" height="50px" viewBox="0 0 50 50" version="1.1" xmlns="http://www.w3.org/2000/svg" xmlns:xlink="http://www.w3.org/1999/xlink">
    <!-- Generator: Sketch 57.1 (83088) - https://sketch.com -->
    <title>btn-participant-off</title>
    <desc>Created with Sketch.</desc>
    <g id="Symbols" stroke="none" stroke-width="1" fill="none" fill-rule="evenodd">
        <g id="btn-participant-off">
            <g>
                <circle id="bg" fill="#13141C" fill-rule="nonzero" cx="25" cy="25" r="25"></circle>
                <path d="M10.5,41 C11.8454165,37.5246513 13.2380642,35.5446389 17.0840391,35.2692547 C19.1149837,35.2692547 20.7613309,33.589411 20.7613309,31.5171449 C20.7613309,30.2228391 20.1176361,29.0813716 19.1392741,28.4066803 L19.0596557,28.3502265 C16.5253606,26.5216754 14.8695672,23.5075953 14.8695672,20.0983388 C14.8695672,14.5218087 19.2998604,10 24.7665426,10 C30.2332248,10 34.6648674,14.5218087 34.6648674,20.0983388 C34.6648674,23.5075953 33.0104235,26.5216754 30.474779,28.3502265 L30.3938111,28.4066803 C29.4167985,29.0813716 28.7731038,30.2228391 28.7731038,31.5171449 C28.7731038,33.589411 30.4194509,35.2692547 32.4503955,35.2692547 C36.2950209,35.5446389 38.155933,37.5246513 39.5,41" id="figure" stroke="#FFFFFF" stroke-width="1.5"></path>
            </g>
        </g>
    </g>
</svg>