<?xml version="1.0" encoding="UTF-8"?>
<svg width="50px" height="50px" viewBox="0 0 50 50" version="1.1" xmlns="http://www.w3.org/2000/svg" xmlns:xlink="http://www.w3.org/1999/xlink">
    <!-- Generator: Sketch 57.1 (83088) - https://sketch.com -->
    <title>btn-live-on</title>
    <desc>Created with Sketch.</desc>
    <g id="Symbols" stroke="none" stroke-width="1" fill="none" fill-rule="evenodd">
        <g id="btn-live-on">
            <g>
                <circle id="bg" fill="#3E44FE" cx="25" cy="25" r="25"></circle>
                <g id="icon" transform="translate(6.000000, 16.000000)">
                    <path d="M19,0 C14.0375714,0 10,4.03714286 10,9 C10,13.9628571 14.0375714,18 19,18 C23.9624286,18 28,13.9628571 28,9 C28,4.03714286 23.9624286,0 19,0" id="circle-lg" stroke="#FFFFFF" stroke-width="1.5"></path>
                    <path d="M19,5 C16.7907692,5 15,6.79076923 15,9 C15,11.2092308 16.7907692,13 19,13 C21.2092308,13 23,11.2092308 23,9 C23,6.79076923 21.2092308,5 19,5" id="circle-sm" fill="#FFFFFF"></path>
                    <path d="M34.8897498,18 C36.9229577,15.3814718 38,12.2691306 38,8.99853468 C38,5.7294041 36.9245074,2.61706285 34.8912995,0 M31,15.2964832 C32.4241753,13.4648323 33.1773301,11.2873657 33.1773301,8.99853468 C33.1773301,6.711169 32.4241753,4.53370238 31.0015497,2.70205145 M3.11025017,0 C1.07704228,2.61852817 -2.56683563e-13,5.73086942 -2.57571742e-13,9.00146532 C-2.57571742e-13,12.2705959 1.07549258,15.3829372 3.10870046,18 M7,2.70351677 C5.57582466,4.5351677 4.82266991,6.71263432 4.82266991,9.00146532 C4.82266991,11.288831 5.57582466,13.4662976 6.9984503,15.2979486" id="sound" stroke="#FFFFFF" stroke-width="1.5"></path>
                </g>
            </g>
        </g>
    </g>
</svg>