<?xml version="1.0" encoding="UTF-8"?>
<svg width="50px" height="50px" viewBox="0 0 50 50" version="1.1" xmlns="http://www.w3.org/2000/svg" xmlns:xlink="http://www.w3.org/1999/xlink">
    <!-- Generator: Sketch 57.1 (83088) - https://sketch.com -->
    <title>btn-settings-on</title>
    <desc>Created with Sketch.</desc>
    <g id="Symbols" stroke="none" stroke-width="1" fill="none" fill-rule="evenodd">
        <g id="btn-settings-on">
            <g>
                <circle id="bg" fill="#3E44FE" cx="25" cy="25" r="25"></circle>
                <path d="M39.4534294,22.5354348 L35.5987465,21.9054348 C35.3730748,21.1319565 35.0645697,20.3884783 34.6784492,19.6847826 L36.9286447,16.4780435 C37.1106171,16.2191304 37.07931,15.8663043 36.8555949,15.6419565 L34.3190701,13.1069565 C34.0927461,12.8813043 33.7366282,12.8519565 33.4770404,13.0391304 L30.3182876,15.3093478 C29.6080085,14.9167391 28.8579433,14.605 28.0798322,14.3786957 L27.4073825,10.54 C27.3525951,10.2282609 27.0819194,10 26.7649353,10 L23.177667,10 C22.858074,10 22.5854416,10.2315217 22.5339154,10.5471739 L21.910383,14.365 C21.1277062,14.59 20.3763366,14.8984783 19.6686664,15.2858696 L16.5183926,13.0358696 C16.2581526,12.85 15.9039914,12.88 15.6776674,13.105 L13.142447,15.64 C12.9187319,15.8636957 12.8874249,16.2158696 13.0693972,16.4747826 L15.286329,19.6463043 C14.8917295,20.3604348 14.5773543,21.1163043 14.3484214,21.9028261 L10.5452648,22.536087 C10.2308896,22.5882609 10,22.8608696 10,23.1791304 L10,26.766087 C10,27.0823913 10.2269762,27.3530435 10.5380902,27.4084783 L14.3412469,28.0828261 C14.5688753,28.8673913 14.8832505,29.6232609 15.2791545,30.3393478 L13.034829,33.4782609 C12.8495955,33.7371739 12.8789459,34.0926087 13.1039654,34.318913 L15.639838,36.8565217 C15.8635531,37.0802174 16.2164098,37.1115217 16.4753454,36.9295652 L19.6517084,34.705 C20.3645964,35.0969565 21.1179228,35.4080435 21.8986428,35.6336957 L22.5352199,39.456087 C22.5867461,39.7697826 22.8587263,40 23.177667,40 L26.7649353,40 C27.0812672,40 27.3519429,39.7730435 27.4067302,39.4619565 L28.0883112,35.6206522 C28.8703357,35.3904348 29.6197486,35.0773913 30.3254622,34.6847826 L33.5246532,36.928913 C33.784241,37.1121739 34.1364455,37.0802174 34.3608129,36.8565217 L36.8966854,34.318913 C37.1223572,34.0926087 37.1517076,33.7358696 36.9645174,33.4763043 L34.6830148,30.3086957 C35.0697875,29.6043478 35.3769881,28.8595652 35.6007032,28.086087 L39.4606039,27.4084783 C39.7730224,27.3536957 40,27.0823913 40,26.766087 L40,23.1791304 C40.0006509,22.8595652 39.769109,22.5869565 39.4534294,22.5354348 Z M24.9999993,29.5652174 C22.4784758,29.5652174 20.4343851,27.5213043 20.4343851,25 C20.4343851,22.4786957 22.4784758,20.4347826 24.9999993,20.4347826 C27.5215228,20.4347826 29.5656135,22.4786957 29.5656135,25 C29.5656135,27.5213043 27.5215228,29.5652174 24.9999993,29.5652174 Z" id="gear" stroke="#FFFFFF" stroke-width="1.5"></path>
            </g>
        </g>
    </g>
</svg>