<?xml version="1.0" encoding="UTF-8"?>
<svg width="50px" height="50px" viewBox="0 0 50 50" version="1.1" xmlns="http://www.w3.org/2000/svg" xmlns:xlink="http://www.w3.org/1999/xlink">
    <!-- Generator: Sketch 57.1 (83088) - https://sketch.com -->
    <title>btn-camera-green</title>
    <desc>Created with Sketch.</desc>
    <g id="Symbols" stroke="none" stroke-width="1" fill="none" fill-rule="evenodd">
        <g id="btn-camera-on">
            <g>
                <circle id="bg" fill="#32CD32" cx="25" cy="25" r="25"></circle>
                <path d="M32.8949046,32.6906506 C32.8949046,34.3768955 31.5486676,35.75 29.8807422,35.75 L11.2641623,35.75 C9.59623695,35.75 8.25,34.3768955 8.25,32.6906506 L8.25,17.3081184 C8.25,15.6228537 9.59648679,14.25 11.2641623,14.25 L29.8807422,14.25 C31.5484178,14.25 32.8949046,15.6228537 32.8949046,17.3081184 L32.8949046,20.2309674 L38.1703883,16.0213655 C39.6426786,14.8469558 41.75,15.9482445 41.75,17.8423709 L41.75,32.8026713 C41.75,34.6971755 39.6420722,35.7994722 38.1702879,34.6235965 L32.8949046,30.4140748 L32.8949046,32.6906506 Z M32.6126947,28.2698607 L39.1062224,33.4514079 C39.5720567,33.8235841 40.25,33.4690678 40.25,32.8026713 L40.25,17.8423709 C40.25,17.1763708 39.5720364,16.8220663 39.1058681,17.1939172 L31.3949046,23.3469239 L31.3949046,17.3081184 C31.3949046,16.4448397 30.7134099,15.75 29.8807422,15.75 L11.2641623,15.75 C10.4314947,15.75 9.75,16.4448397 9.75,17.3081184 L9.75,32.6906506 C9.75,33.5550304 10.4313711,34.25 11.2641623,34.25 L29.8807422,34.25 C30.7135335,34.25 31.3949046,33.5550304 31.3949046,32.6906506 L31.3949046,27.2981182 L32.6126947,28.2698607 Z M19.8175,21.381 L19.8175,28.5 L18.0745,28.5 L18.0745,25.5075 L15.418,25.5075 L15.418,28.5 L13.6645,28.5 L13.6645,21.381 L15.418,21.381 L15.418,24.237 L18.0745,24.237 L18.0745,21.381 L19.8175,21.381 Z M27.703,24.9405 C27.703,26.19 27.388,27.135 26.8105,27.6915 C26.2015,28.29 25.4455,28.5 24.1855,28.5 L21.4135,28.5 L21.4135,21.381 L24.0805,21.381 C25.3615,21.381 26.2435,21.6225 26.8525,22.2525 C27.3985,22.8195 27.703,23.733 27.703,24.9405 Z M25.8655,24.9405 C25.8655,23.9535 25.6765,23.3235 25.351,22.9875 C25.0885,22.704 24.7525,22.6515 24.3115,22.6515 L23.146,22.6515 L23.146,27.2295 L24.3115,27.2295 C24.742,27.2295 25.0675,27.177 25.33,26.9145 C25.666,26.589 25.8655,25.9695 25.8655,24.9405 Z" id="icon" fill="#FFFFFF" fill-rule="nonzero"></path>
            </g>
        </g>
    </g>
</svg>