<?xml version="1.0" encoding="UTF-8"?>
<svg width="50px" height="50px" viewBox="0 0 50 50" version="1.1" xmlns="http://www.w3.org/2000/svg" xmlns:xlink="http://www.w3.org/1999/xlink">
    <!-- Generator: Sketch 57.1 (83088) - https://sketch.com -->
    <title>btn-dialin-on</title>
    <desc>Created with Sketch.</desc>
    <g id="Symbols" stroke="none" stroke-width="1" fill="none" fill-rule="evenodd">
        <g id="btn-dialin-on">
            <g>
                <circle id="bg" fill="#3E44FE" cx="25" cy="25" r="25"></circle>
                <path d="M27.8252297,33.7916857 L27.770344,33.7506617 C23.6382321,30.6076937 20.0013986,26.8480423 16.9591605,22.5736059 L16.9186496,22.518025 L19.6760045,19.0190746 L13.9639675,12 L11.8168897,14.2324998 C9.99912633,16.1103404 9.48816625,18.9992242 10.5440633,21.4196404 L10.7270157,21.8417906 C14.3612356,30.1802501 20.8272982,36.7890846 28.9320921,40.4534544 C29.7436169,40.8213471 30.5956527,41 31.4385408,41 C33.0485224,41 34.625834,40.347586 35.8228658,39.1102492 L38,36.8486356 L31.1876346,30.9425025 L27.8252297,33.7916857 Z M29.5864792,25.3966875 L34.9273125,20.0558542 C35.0698958,19.9144792 35.3006875,19.9144792 35.4444792,20.0558542 L37.1264792,21.7402708 C37.3451875,21.9577708 37.7185625,21.8236458 37.7487708,21.5167292 L38.7009375,11.6047708 L28.7636042,12.5315625 C28.4554792,12.5593542 28.3213542,12.9339375 28.5400625,13.1526458 L30.2764375,14.8890208 C30.4178125,15.0316042 30.4178125,15.2623958 30.2764375,15.4049792 L24.9343958,20.7458125" id="icon" stroke="#FFFFFF" stroke-width="1.5"></path>
            </g>
        </g>
    </g>
</svg>