<?xml version="1.0" encoding="UTF-8"?>
<svg width="50px" height="50px" viewBox="0 0 50 50" version="1.1" xmlns="http://www.w3.org/2000/svg" xmlns:xlink="http://www.w3.org/1999/xlink">
    <!-- Generator: Sketch 64 (93537) - https://sketch.com -->
    <title>btn-camera-off-alt</title>
    <desc>Created with Sketch.</desc>
    <g id="Symbols" stroke="none" stroke-width="1" fill="none" fill-rule="evenodd">
        <g id="btn-camera-off" fill-rule="nonzero">
            <g id="btn-camera-off-alt">
                <circle id="bg" fill="#13141C" cx="25" cy="25" r="25"></circle>
                <path d="M37.1885221,38.5118446 L32.6277301,33.9514122 C32.1549158,35.0109561 31.1043999,35.75 29.8807422,35.75 L11.2641623,35.75 C9.59623695,35.75 8.25,34.3768955 8.25,32.6906506 L8.25,17.3081184 C8.25,15.6228537 9.59648679,14.25 11.2641623,14.25 L12.926,14.2491111 L9.9662999,11.2896224 L11.077411,10.1785113 L38.2996332,37.4007335 L38.3670334,37.3333333 L37.1885221,38.5118446 Z M17.504,14.2491111 L29.8807422,14.25 C31.5484178,14.25 32.8949046,15.6228537 32.8949046,17.3081184 L32.8949046,20.2309674 L38.1703883,16.0213655 C39.6426786,14.8469558 41.75,15.9482445 41.75,17.8423709 L41.75,32.8026713 C41.75,34.6971755 39.6420722,35.7994722 38.1702879,34.6235965 L36.729,33.4731111 L31.394,28.1381111 L31.3949046,27.2981182 L32.6126947,28.2698607 L39.1062224,33.4514079 C39.5720567,33.8235841 40.25,33.4690678 40.25,32.8026713 L40.25,17.8423709 C40.25,17.1763708 39.5720364,16.8220663 39.1058681,17.1939172 L31.3949046,23.3469239 L31.3949046,17.3081184 C31.3949046,16.4448397 30.7134099,15.75 29.8807422,15.75 L19.004,15.7491111 L17.504,14.2491111 Z M14.426,15.7491111 L11.2641623,15.75 C10.4314947,15.75 9.75,16.4448397 9.75,17.3081184 L9.75,32.6906506 C9.75,33.5550304 10.4313711,34.25 11.2641623,34.25 L29.8807422,34.25 C30.7050622,34.25 31.3810269,33.5690972 31.3946936,32.7169752 L26.5745371,27.8980752 C26.004625,28.3392188 25.288,28.5 24.1855,28.5 L21.4135,28.5 L21.413,22.7361111 L14.426,15.7491111 Z M15.418,21.381 L15.418,24.237 L18.0745,24.237 L18.0745,21.381 L19.8175,21.381 L19.8175,28.5 L18.0745,28.5 L18.0745,25.5075 L15.418,25.5075 L15.418,28.5 L13.6645,28.5 L13.6645,21.381 L15.418,21.381 Z M23.146,24.4691111 L23.146,27.2295 L24.3115,27.2295 C24.742,27.2295 25.0675,27.177 25.33,26.9145 C25.3727023,26.8731321 25.4131999,26.8270155 25.4513635,26.7759132 L23.146,24.4691111 Z M26.8525,22.2525 C27.3181864,22.7360975 27.6081942,23.4717556 27.6834353,24.4269011 L24.6578378,21.3996337 C25.6331693,21.4669304 26.3396394,21.7219545 26.8525,22.2525 Z" id="Combined-Shape" fill="#FFFFFF"></path>
            </g>
        </g>
    </g>
</svg>