<?xml version="1.0" encoding="UTF-8"?>
<svg width="16px" height="25px" viewBox="0 0 16 25" version="1.1" xmlns="http://www.w3.org/2000/svg" xmlns:xlink="http://www.w3.org/1999/xlink">
    <!-- Generator: Sketch 57.1 (83088) - https://sketch.com -->
    <title>icon-mic</title>
    <desc>Created with Sketch.</desc>
    <g id="Symbols" stroke="none" stroke-width="1" fill="none" fill-rule="evenodd">
        <g id="icon-mic" fill="#00AFEF">
            <path d="M7.75,15 C5.26826225,15 3.25,13.1518625 3.25,10.8804659 L3.25,4.11953407 C3.25,1.84907188 5.26826225,0 7.75,0 C10.2317377,0 12.25,1.84907188 12.25,4.11953407 L12.25,10.8804659 C12.25,13.1518625 10.2317377,15 7.75,15 Z M7.01061603,23.25 L7.01061603,17.2302408 L6.35149691,17.1497795 C3.41116358,16.7908411 1.5,14.6170818 1.5,11.8032184 L1.5,10 L0,10 L0,11.8032184 C0,15.1563072 2.18332776,17.8431627 5.51061603,18.5308168 L5.51061603,23.4666667 C5.51061603,24.1979284 6.13825382,24.75 6.86662679,24.75 L8.39055024,24.75 C9.12063131,24.75 9.746561,24.1981153 9.746561,23.4666667 L9.746561,18.5771778 C13.1917321,17.9701787 15.5,15.235658 15.5,11.8032184 L15.5,10 L14,10 L14,11.8032184 C14,14.6815519 11.9754237,16.8971767 8.92869705,17.1739962 L8.246561,17.2359737 L8.246561,23.25 L7.01061603,23.25 Z"></path>
        </g>
    </g>
</svg>