<?xml version="1.0" encoding="UTF-8"?>
<svg width="23px" height="20px" viewBox="0 0 23 20" version="1.1" xmlns="http://www.w3.org/2000/svg" xmlns:xlink="http://www.w3.org/1999/xlink">
    <!-- Generator: Sketch 57.1 (83088) - https://sketch.com -->
    <title>icon-window-hover</title>
    <desc>Created with Sketch.</desc>
    <g id="Symbols" stroke="none" stroke-width="1" fill="none" fill-rule="evenodd">
        <g id="icon-window-hover" fill="#FFFFFF" fill-rule="nonzero">
            <path d="M20.4684837,19.5 L2.03254481,19.5 C0.912633408,19.5 0,18.5977728 0,17.4820793 L0,2.01690391 C0,0.900455447 0.912356789,0 2.03254481,0 L20.4684837,0 C21.5886586,0 22.5,0.900450469 22.5,2.01690391 L22.5,17.4820793 C22.5,18.5977785 21.588383,19.5 20.4684837,19.5 Z M20.4684837,18 C20.7634145,18 21,17.7658528 21,17.4820793 L21,2.01690391 C21,1.73294118 20.7642414,1.5 20.4684837,1.5 L2.03254481,1.5 C1.73640717,1.5 1.5,1.73332333 1.5,2.01690391 L1.5,17.4820793 C1.5,17.7654707 1.73723436,18 2.03254481,18 L20.4684837,18 Z M3.75,4.75 C4.30228475,4.75 4.75,4.30228475 4.75,3.75 C4.75,3.19771525 4.30228475,2.75 3.75,2.75 C3.19771525,2.75 2.75,3.19771525 2.75,3.75 C2.75,4.30228475 3.19771525,4.75 3.75,4.75 Z M6.75,4.75 C7.30228475,4.75 7.75,4.30228475 7.75,3.75 C7.75,3.19771525 7.30228475,2.75 6.75,2.75 C6.19771525,2.75 5.75,3.19771525 5.75,3.75 C5.75,4.30228475 6.19771525,4.75 6.75,4.75 Z M21.75,6 C22.1642136,6 22.5,6.33578644 22.5,6.75 C22.5,7.16421356 22.1642136,7.5 21.75,7.5 L21.75,7.5 L0.75,7.5 C0.335786438,7.5 0,7.16421356 0,6.75 C0,6.33578644 0.335786438,6 0.75,6 L0.75,6 Z M9.75,2.75 C10.3022847,2.75 10.75,3.19771525 10.75,3.75 C10.75,4.30228475 10.3022847,4.75 9.75,4.75 C9.19771525,4.75 8.75,4.30228475 8.75,3.75 C8.75,3.19771525 9.19771525,2.75 9.75,2.75 Z"></path>
        </g>
    </g>
</svg>