<?xml version="1.0" encoding="utf-8"?>
<svg width="25px" height="25px" viewBox="0 0 25 25" xmlns="http://www.w3.org/2000/svg" xmlns:bx="https://boxy-svg.com">
  <title>icon-camera-pinned</title>
  <desc>Created with Sketch.</desc>
  <g id="Symbols" stroke="none" stroke-width="1" fill="none" fill-rule="evenodd" transform="matrix(1, 0, 0, 1, 137.867004, 131.506989)" bx:origin="-0.999987 -0.999983">
    <g id="btn-camera-on">
      <g>
        <circle id="bg" fill="none" cx="-125.367" cy="-119.007" r="12.5" bx:origin="0.000013 0.000017"/>
        <path d="M -121.42 -115.161 C -121.42 -114.318 -122.093 -113.632 -122.927 -113.632 L -132.235 -113.632 C -133.069 -113.632 -133.742 -114.318 -133.742 -115.161 L -133.742 -122.853 C -133.742 -123.695 -133.069 -124.382 -132.235 -124.382 L -122.927 -124.382 C -122.093 -124.382 -121.42 -123.695 -121.42 -122.853 L -121.42 -121.391 L -118.782 -123.496 C -118.046 -124.083 -116.992 -123.533 -116.992 -122.586 L -116.992 -115.105 C -116.992 -114.158 -118.046 -113.607 -118.782 -114.195 L -121.42 -116.3 L -121.42 -115.161 Z M -121.665 -120.43 L -117.35 -115.438 C -117.117 -115.252 -117.742 -114.772 -117.742 -115.105 L -123.217 -118.489 C -123.217 -118.822 -118.081 -123.096 -118.314 -122.91 L -122.136 -118.117 L -133.372 -115.111 C -133.372 -115.542 -122.511 -123.632 -122.927 -123.632 L -121.743 -114.625 C -122.16 -114.625 -122.209 -114.461 -122.209 -114.03 L -131.51 -114.032 C -131.51 -113.6 -132.652 -114.382 -132.235 -114.382 L -122.927 -114.382 C -122.51 -114.382 -122.17 -114.729 -122.17 -115.161 L -122.17 -117.858 L -121.665 -120.43 Z M -127.958 -120.816 L -127.958 -117.257 L -128.83 -117.257 L -128.83 -118.753 L -130.158 -118.753 L -130.158 -117.257 L -131.035 -117.257 L -131.035 -120.816 L -130.158 -120.816 L -130.158 -119.388 L -128.83 -119.388 L -128.83 -120.816 L -127.958 -120.816 Z M -124.016 -119.036 C -124.016 -118.412 -125.242 -118.86 -125.531 -118.582 C -125.835 -118.283 -125.183 -118.819 -125.813 -118.819 L -125.937 -117.664 L -125.991 -120.164 L -125.827 -120.816 C -125.186 -120.816 -125.368 -120.021 -125.064 -119.706 C -124.791 -119.423 -124.016 -119.64 -124.016 -119.036 Z M -123.975 -118.999 C -123.975 -119.493 -125.029 -119.845 -125.192 -120.013 C -125.323 -120.155 -125.491 -120.181 -125.711 -120.181 L -126.294 -120.181 C -126.294 -120.181 -123.284 -118.725 -122.744 -118.185 C -122.607 -118.048 -125.711 -117.892 -125.711 -117.892 C -125.496 -117.892 -125.333 -117.918 -125.202 -118.049 C -125.034 -118.212 -123.975 -118.485 -123.975 -118.999 Z" id="icon" fill="#FFFFFF" fill-rule="nonzero" bx:origin="-0.246249 -0.66275"/>
      </g>
    </g>
  </g>
</svg>