<?xml version="1.0" encoding="UTF-8"?>
<svg xmlns="http://www.w3.org/2000/svg" xmlns:xlink="http://www.w3.org/1999/xlink" width="25" height="25" viewBox="0 0 25 25" version="1.1">
<g id="surface1">
<path style=" stroke:none;fill-rule:nonzero;fill:rgb(92.156863%,6.27451%,0%);fill-opacity:1;" d="M 25 12.5 C 25 19.402344 19.402344 25 12.5 25 C 5.597656 25 0 19.402344 0 12.5 C 0 5.597656 5.597656 0 12.5 0 C 19.402344 0 25 5.597656 25 12.5 Z M 25 12.5 "/>
<path style=" stroke:none;fill-rule:nonzero;fill:rgb(100%,100%,100%);fill-opacity:1;" d="M 18.59375 19.257812 L 16.3125 16.976562 C 16.078125 17.503906 15.550781 17.875 14.941406 17.875 L 5.632812 17.875 C 4.796875 17.875 4.125 17.1875 4.125 16.34375 L 4.125 8.652344 C 4.125 7.8125 4.796875 7.125 5.632812 7.125 L 6.464844 7.125 L 4.984375 5.644531 L 5.539062 5.089844 L 19.148438 18.699219 L 19.183594 18.667969 Z M 8.753906 7.125 L 14.941406 7.125 C 15.773438 7.125 16.449219 7.8125 16.449219 8.652344 L 16.449219 10.117188 L 19.085938 8.011719 C 19.820312 7.421875 20.875 7.972656 20.875 8.921875 L 20.875 16.402344 C 20.875 17.347656 19.820312 17.898438 19.085938 17.3125 L 18.363281 16.738281 L 15.695312 14.070312 L 15.699219 13.648438 L 16.304688 14.136719 L 19.554688 16.726562 C 19.785156 16.910156 20.125 16.734375 20.125 16.402344 L 20.125 8.921875 C 20.125 8.589844 19.785156 8.410156 19.554688 8.597656 L 15.699219 11.671875 L 15.699219 8.652344 C 15.699219 8.222656 15.355469 7.875 14.941406 7.875 L 9.503906 7.875 Z M 7.214844 7.875 L 5.632812 7.875 C 5.214844 7.875 4.875 8.222656 4.875 8.652344 L 4.875 16.34375 C 4.875 16.777344 5.214844 17.125 5.632812 17.125 L 14.941406 17.125 C 15.351562 17.125 15.691406 16.785156 15.699219 16.359375 L 13.289062 13.949219 C 13.003906 14.167969 12.644531 14.25 12.09375 14.25 L 10.707031 14.25 L 10.707031 11.367188 Z M 7.710938 10.691406 L 7.710938 12.117188 L 9.039062 12.117188 L 9.039062 10.691406 L 9.910156 10.691406 L 9.910156 14.25 L 9.039062 14.25 L 9.039062 12.753906 L 7.710938 12.753906 L 7.710938 14.25 L 6.832031 14.25 L 6.832031 10.691406 Z M 11.574219 12.234375 L 11.574219 13.613281 L 12.15625 13.613281 C 12.371094 13.613281 12.535156 13.589844 12.664062 13.457031 C 12.6875 13.4375 12.707031 13.414062 12.726562 13.386719 Z M 13.425781 11.125 C 13.660156 11.367188 13.804688 11.734375 13.839844 12.214844 L 12.328125 10.699219 C 12.816406 10.734375 13.167969 10.859375 13.425781 11.125 Z M 13.425781 11.125 "/>
</g>
</svg>
