<?xml version="1.0" encoding="UTF-8"?>
<svg width="20px" height="18px" viewBox="0 0 20 18" version="1.1" xmlns="http://www.w3.org/2000/svg" xmlns:xlink="http://www.w3.org/1999/xlink">
    <!-- Generator: Sketch 57.1 (83088) - https://sketch.com -->
    <title>icon-speaker</title>
    <desc>Created with Sketch.</desc>
    <g id="Symbols" stroke="none" stroke-width="1" fill="none" fill-rule="evenodd">
        <g id="icon-speaker" fill="#00AFEF">
            <path d="M10.0847059,0.0801530019 L4.96117647,4.487753 L1.41764706,4.487753 C0.635294118,4.487753 -7.96696042e-13,5.141753 -7.96696042e-13,5.950553 L-7.96696042e-13,11.800553 C-7.96696042e-13,12.606953 0.635294118,13.262153 1.41764706,13.262153 L4.96117647,13.262153 L10.0847059,17.669753 C10.3023529,17.855753 10.6294118,17.697353 10.6294118,17.405753 L10.6294118,0.342953002 C10.6294118,0.0525530019 10.3023529,-0.105846998 10.0847059,0.0801530019 M17.5005935,1.1890049 C19.1365312,3.46051444 20.002,6.16279647 20.002,8.996513 C20.002,11.830233 19.1360478,14.532677 17.4995333,16.8062595 L16.2821137,15.9299665 C17.7343297,13.9124268 18.502,11.5166987 18.502,8.996513 C18.502,6.47632286 17.7348121,4.08090664 16.2834065,2.0656211 L17.5005935,1.1890049 Z M14.5477096,3.40188446 C15.7202759,5.03044878 16.3408235,6.96716811 16.3408235,8.996513 C16.3408235,11.0274677 15.7200336,12.9642534 14.5463067,14.5926558 L13.329458,13.7155702 C14.3184496,12.3434654 14.8408235,10.713725 14.8408235,8.996513 C14.8408235,7.28072646 14.3185741,5.65079444 13.3304081,4.27834155 L14.5477096,3.40188446 Z"></path>
        </g>
    </g>
</svg>