
<svg width="75px" height="75px" viewBox="0 0 75 75" version="1.1" xmlns="http://www.w3.org/2000/svg" xmlns:xlink="http://www.w3.org/1999/xlink">
    <!-- Generator: Sketch 48.2 (47327) - http://www.bohemiancoding.com/sketch -->
    <desc>Created with Sketch.</desc>
    <defs>
        <linearGradient x1="50%" y1="100%" x2="50%" y2="-3.25520933e-06%" id="linearGradient-1">
            <stop stop-color="#58C6F4" offset="0%"></stop>
            <stop stop-color="#8C7BF1" offset="100%"></stop>
        </linearGradient>
    </defs>
    <g id="Page-1" stroke="none" stroke-width="1" fill="none" fill-rule="evenodd">
        <g id="voxeet-logo-assets_bg-dark" transform="translate(0.000000, -6.000000)">
            <g id="mark" transform="translate(0.000000, 6.000000)">
                <circle id="Oval" fill="url(#linearGradient-1)" fill-rule="nonzero" cx="37.5" cy="37.5" r="37.5"></circle>
                <g id="Rectangle_arrondi_3_copie_4_" transform="translate(11.000000, 10.000000)" fill="#FFFFFF">
                    <path d="M14.4,7 C12.4,7 10.8,8.6 10.8,10.6 L10.8,46.7 C10.8,48.7 12.4,50.3 14.4,50.3 C16.4,50.3 18,48.7 18,46.7 L18,10.6 C18,8.6 16.4,7 14.4,7 Z M26.2,0.6 C24.2,0.6 22.6,2.2 22.6,4.2 L22.6,41 C22.6,43 24.2,44.6 26.2,44.6 C28.2,44.6 29.8,43 29.8,41 L29.8,4.1 C29.7,2.2 28.1,0.6 26.2,0.6 Z M38,6.5 C36,6.5 34.4,8.1 34.4,10.1 L34.4,46.9 C34.4,48.9 36,50.5 38,50.5 C40,50.5 41.6,48.9 41.6,46.9 L41.6,10.1 C41.5,8.1 39.9,6.5 38,6.5 Z M49.2,19.2 C47.5,19.2 46.1,20.6 46.1,22.3 L46.1,37.5 C46.1,39.2 47.5,40.6 49.2,40.6 C50.9,40.6 52.3,39.2 52.3,37.5 L52.3,22.3 C52.4,20.6 51,19.2 49.2,19.2 Z M3.2,19.2 C1.5,19.2 0.1,20.6 0.1,22.3 L0.1,37.5 C0.1,39.2 1.5,40.6 3.2,40.6 C4.9,40.6 6.3,39.2 6.3,37.5 L6.3,22.3 C6.3,20.6 4.9,19.2 3.2,19.2 Z" id="Shape"></path>
                </g>
            </g>
        </g>
    </g>
</svg>