<?xml version="1.0" encoding="UTF-8"?>
<svg width="50px" height="50px" viewBox="0 0 50 50" version="1.1" xmlns="http://www.w3.org/2000/svg" xmlns:xlink="http://www.w3.org/1999/xlink">
    <!-- Generator: Sketch 57.1 (83088) - https://sketch.com -->
    <title>btn-chat-on</title>
    <desc>Created with Sketch.</desc>
    <g id="Symbols" stroke="none" stroke-width="1" fill="none" fill-rule="evenodd">
        <g id="btn-chat-on">
            <g>
                <circle id="bg" fill="#FF9235" cx="25" cy="25" r="25"></circle>
                <path d="M31,17.1341338 L31,12.839418 C31,12.3754064 30.632645,12 30.178585,12 L8.82255584,12 C8.36735504,12 8,12.3754064 8,12.839418 L8,32.620537 C8,32.9924459 8.47003191,33.1416757 8.67652651,32.835055 L12.5577123,27.0920366 L18.9529604,27.0920366 M43.1824094,20 L22.8175906,20 C22.3667802,20 22,20.361791 22,20.8089736 L22,32.7491993 C22,33.1952584 22.3667802,33.5570494 22.8175906,33.5570494 L35.4039434,33.5570494 L39.4067307,37.8805639 C39.6338392,38.1266267 40.0483122,37.9670791 40.0483122,37.6333775 L40.0483122,33.5570494 L42.95,33.5570494 C43.529899,33.5570494 44,33.0869484 44,32.5070494 L44,20.8089736 L44,20.8089736 C44,20.361791 43.6332198,20 43.1824094,20 Z" id="icon" stroke="#FFFFFF" stroke-width="1.5"></path>
            </g>
        </g>
    </g>
</svg>