<?xml version="1.0" encoding="UTF-8"?>
<svg width="1440px" height="1024px" viewBox="0 0 1440 1024" version="1.1" xmlns="http://www.w3.org/2000/svg" xmlns:xlink="http://www.w3.org/1999/xlink">
    <!-- Generator: Sketch 64 (93537) - https://sketch.com -->
    <title>bg-3D</title>
    <desc>Created with Sketch.</desc>
    <defs>
        <polygon id="path-1" points="0 0 1440 0 1440 1024 0 1024"></polygon>
    </defs>
    <g id="PC-Screens" stroke="none" stroke-width="1" fill="none" fill-rule="evenodd">
        <g id="conference-gallery-3D-panel-add-participants-dark">
            <g id="bg-3D">
                <g id="bg-footer">
                    <g id="bg-3D">
                        <mask id="mask-2" fill="white">
                            <use xlink:href="#path-1"></use>
                        </mask>
                        <use id="Mask" fill="#13141C" xlink:href="#path-1"></use>
                        <g id="dot-grid" opacity="0.2" transform="translate(0.000000, 6.000000)" stroke="#979797" stroke-dasharray="1,5">
                            <line x1="0" y1="0.5" x2="1440" y2="0.5" id="Line-3"></line>
                            <line x1="0" y1="6.5" x2="1440" y2="6.5" id="Line-3-Copy"></line>
                            <line x1="0" y1="12.5" x2="1440" y2="12.5" id="Line-3-Copy-2"></line>
                            <line x1="0" y1="18.5" x2="1440" y2="18.5" id="Line-3-Copy-3"></line>
                            <line x1="0" y1="24.5" x2="1440" y2="24.5" id="Line-3-Copy-4"></line>
                            <line x1="0" y1="30.5" x2="1440" y2="30.5" id="Line-3-Copy-5"></line>
                            <line x1="0" y1="36.5" x2="1440" y2="36.5" id="Line-3-Copy-6"></line>
                            <line x1="0" y1="42.5" x2="1440" y2="42.5" id="Line-3-Copy-7"></line>
                            <line x1="0" y1="48.5" x2="1440" y2="48.5" id="Line-3-Copy-8"></line>
                            <line x1="0" y1="54.5" x2="1440" y2="54.5" id="Line-3-Copy-9"></line>
                            <line x1="0" y1="60.5" x2="1440" y2="60.5" id="Line-3-Copy-10"></line>
                            <line x1="0" y1="66.5" x2="1440" y2="66.5" id="Line-3-Copy-11"></line>
                            <line x1="0" y1="72.5" x2="1440" y2="72.5" id="Line-3-Copy-12"></line>
                            <line x1="0" y1="78.5" x2="1440" y2="78.5" id="Line-3-Copy-13"></line>
                            <line x1="0" y1="84.5" x2="1440" y2="84.5" id="Line-3-Copy-14"></line>
                            <line x1="0" y1="90.5" x2="1440" y2="90.5" id="Line-3-Copy-15"></line>
                            <line x1="0" y1="96.5" x2="1440" y2="96.5" id="Line-3-Copy-16"></line>
                            <line x1="0" y1="102.5" x2="1440" y2="102.5" id="Line-3-Copy-17"></line>
                            <line x1="0" y1="108.5" x2="1440" y2="108.5" id="Line-3-Copy-18"></line>
                            <line x1="0" y1="114.5" x2="1440" y2="114.5" id="Line-3-Copy-19"></line>
                            <line x1="0" y1="120.5" x2="1440" y2="120.5" id="Line-3-Copy-20"></line>
                            <line x1="0" y1="126.5" x2="1440" y2="126.5" id="Line-3-Copy-21"></line>
                            <line x1="0" y1="132.5" x2="1440" y2="132.5" id="Line-3-Copy-22"></line>
                            <line x1="0" y1="138.5" x2="1440" y2="138.5" id="Line-3-Copy-23"></line>
                            <line x1="0" y1="144.5" x2="1440" y2="144.5" id="Line-3-Copy-24"></line>
                            <line x1="0" y1="150.5" x2="1440" y2="150.5" id="Line-3-Copy-25"></line>
                            <line x1="0" y1="156.5" x2="1440" y2="156.5" id="Line-3-Copy-26"></line>
                            <line x1="0" y1="162.5" x2="1440" y2="162.5" id="Line-3-Copy-27"></line>
                            <line x1="0" y1="168.5" x2="1440" y2="168.5" id="Line-3-Copy-28"></line>
                            <line x1="0" y1="174.5" x2="1440" y2="174.5" id="Line-3-Copy-29"></line>
                            <line x1="0" y1="180.5" x2="1440" y2="180.5" id="Line-3-Copy-30"></line>
                            <line x1="0" y1="186.5" x2="1440" y2="186.5" id="Line-3-Copy-31"></line>
                            <line x1="0" y1="192.5" x2="1440" y2="192.5" id="Line-3-Copy-32"></line>
                            <line x1="0" y1="198.5" x2="1440" y2="198.5" id="Line-3-Copy-33"></line>
                            <line x1="0" y1="204.5" x2="1440" y2="204.5" id="Line-3-Copy-34"></line>
                            <line x1="0" y1="210.5" x2="1440" y2="210.5" id="Line-3-Copy-35"></line>
                            <line x1="0" y1="216.5" x2="1440" y2="216.5" id="Line-3-Copy-36"></line>
                            <line x1="0" y1="222.5" x2="1440" y2="222.5" id="Line-3-Copy-37"></line>
                            <line x1="0" y1="228.5" x2="1440" y2="228.5" id="Line-3-Copy-38"></line>
                            <line x1="0" y1="234.5" x2="1440" y2="234.5" id="Line-3-Copy-39"></line>
                            <line x1="0" y1="240.5" x2="1440" y2="240.5" id="Line-3-Copy-40"></line>
                            <line x1="0" y1="246.5" x2="1440" y2="246.5" id="Line-3-Copy-41"></line>
                            <line x1="0" y1="252.5" x2="1440" y2="252.5" id="Line-3-Copy-42"></line>
                            <line x1="0" y1="258.5" x2="1440" y2="258.5" id="Line-3-Copy-43"></line>
                            <line x1="0" y1="264.5" x2="1440" y2="264.5" id="Line-3-Copy-44"></line>
                            <line x1="0" y1="270.5" x2="1440" y2="270.5" id="Line-3-Copy-45"></line>
                            <line x1="0" y1="276.5" x2="1440" y2="276.5" id="Line-3-Copy-46"></line>
                            <line x1="0" y1="282.5" x2="1440" y2="282.5" id="Line-3-Copy-47"></line>
                            <line x1="0" y1="288.5" x2="1440" y2="288.5" id="Line-3-Copy-48"></line>
                            <line x1="0" y1="294.5" x2="1440" y2="294.5" id="Line-3-Copy-49"></line>
                            <line x1="0" y1="300.5" x2="1440" y2="300.5" id="Line-3-Copy-50"></line>
                            <line x1="0" y1="306.5" x2="1440" y2="306.5" id="Line-3-Copy-51"></line>
                            <line x1="0" y1="312.5" x2="1440" y2="312.5" id="Line-3-Copy-52"></line>
                            <line x1="0" y1="318.5" x2="1440" y2="318.5" id="Line-3-Copy-53"></line>
                            <line x1="0" y1="324.5" x2="1440" y2="324.5" id="Line-3-Copy-54"></line>
                            <line x1="0" y1="330.5" x2="1440" y2="330.5" id="Line-3-Copy-55"></line>
                            <line x1="0" y1="336.5" x2="1440" y2="336.5" id="Line-3-Copy-56"></line>
                            <line x1="0" y1="342.5" x2="1440" y2="342.5" id="Line-3-Copy-57"></line>
                            <line x1="0" y1="348.5" x2="1440" y2="348.5" id="Line-3-Copy-58"></line>
                            <line x1="0" y1="354.5" x2="1440" y2="354.5" id="Line-3-Copy-59"></line>
                            <line x1="0" y1="360.5" x2="1440" y2="360.5" id="Line-3-Copy-60"></line>
                            <line x1="0" y1="366.5" x2="1440" y2="366.5" id="Line-3-Copy-61"></line>
                            <line x1="0" y1="372.5" x2="1440" y2="372.5" id="Line-3-Copy-62"></line>
                            <line x1="0" y1="378.5" x2="1440" y2="378.5" id="Line-3-Copy-63"></line>
                            <line x1="0" y1="384.5" x2="1440" y2="384.5" id="Line-3-Copy-64"></line>
                            <line x1="0" y1="390.5" x2="1440" y2="390.5" id="Line-3-Copy-65"></line>
                            <line x1="0" y1="396.5" x2="1440" y2="396.5" id="Line-3-Copy-66"></line>
                            <line x1="0" y1="402.5" x2="1440" y2="402.5" id="Line-3-Copy-67"></line>
                            <line x1="0" y1="408.5" x2="1440" y2="408.5" id="Line-3-Copy-68"></line>
                            <line x1="0" y1="414.5" x2="1440" y2="414.5" id="Line-3-Copy-69"></line>
                            <line x1="0" y1="420.5" x2="1440" y2="420.5" id="Line-3-Copy-70"></line>
                            <line x1="0" y1="426.5" x2="1440" y2="426.5" id="Line-3-Copy-71"></line>
                            <line x1="0" y1="432.5" x2="1440" y2="432.5" id="Line-3-Copy-72"></line>
                            <line x1="0" y1="438.5" x2="1440" y2="438.5" id="Line-3-Copy-73"></line>
                            <line x1="0" y1="444.5" x2="1440" y2="444.5" id="Line-3-Copy-74"></line>
                            <line x1="0" y1="450.5" x2="1440" y2="450.5" id="Line-3-Copy-75"></line>
                            <line x1="0" y1="456.5" x2="1440" y2="456.5" id="Line-3-Copy-76"></line>
                            <line x1="0" y1="462.5" x2="1440" y2="462.5" id="Line-3-Copy-77"></line>
                            <line x1="0" y1="468.5" x2="1440" y2="468.5" id="Line-3-Copy-78"></line>
                            <line x1="0" y1="474.5" x2="1440" y2="474.5" id="Line-3-Copy-79"></line>
                            <line x1="0" y1="480.5" x2="1440" y2="480.5" id="Line-3-Copy-80"></line>
                            <line x1="0" y1="486.5" x2="1440" y2="486.5" id="Line-3-Copy-81"></line>
                            <line x1="0" y1="492.5" x2="1440" y2="492.5" id="Line-3-Copy-82"></line>
                            <line x1="0" y1="498.5" x2="1440" y2="498.5" id="Line-3-Copy-83"></line>
                            <line x1="0" y1="504.5" x2="1440" y2="504.5" id="Line-3-Copy-84"></line>
                            <line x1="0" y1="510.5" x2="1440" y2="510.5" id="Line-3-Copy-85"></line>
                            <line x1="0" y1="516.5" x2="1440" y2="516.5" id="Line-3-Copy-86"></line>
                            <line x1="0" y1="522.5" x2="1440" y2="522.5" id="Line-3-Copy-87"></line>
                            <line x1="0" y1="528.5" x2="1440" y2="528.5" id="Line-3-Copy-88"></line>
                            <line x1="0" y1="534.5" x2="1440" y2="534.5" id="Line-3-Copy-89"></line>
                            <line x1="0" y1="540.5" x2="1440" y2="540.5" id="Line-3-Copy-90"></line>
                            <line x1="0" y1="546.5" x2="1440" y2="546.5" id="Line-3-Copy-91"></line>
                            <line x1="0" y1="552.5" x2="1440" y2="552.5" id="Line-3-Copy-92"></line>
                            <line x1="0" y1="558.5" x2="1440" y2="558.5" id="Line-3-Copy-93"></line>
                            <line x1="0" y1="564.5" x2="1440" y2="564.5" id="Line-3-Copy-94"></line>
                            <line x1="0" y1="570.5" x2="1440" y2="570.5" id="Line-3-Copy-95"></line>
                            <line x1="0" y1="576.5" x2="1440" y2="576.5" id="Line-3-Copy-96"></line>
                            <line x1="0" y1="582.5" x2="1440" y2="582.5" id="Line-3-Copy-97"></line>
                            <line x1="0" y1="588.5" x2="1440" y2="588.5" id="Line-3-Copy-98"></line>
                            <line x1="0" y1="594.5" x2="1440" y2="594.5" id="Line-3-Copy-99"></line>
                            <line x1="0" y1="600.5" x2="1440" y2="600.5" id="Line-3-Copy-100"></line>
                            <line x1="0" y1="606.5" x2="1440" y2="606.5" id="Line-3-Copy-101"></line>
                            <line x1="0" y1="612.5" x2="1440" y2="612.5" id="Line-3-Copy-102"></line>
                            <line x1="0" y1="618.5" x2="1440" y2="618.5" id="Line-3-Copy-103"></line>
                            <line x1="0" y1="624.5" x2="1440" y2="624.5" id="Line-3-Copy-104"></line>
                            <line x1="0" y1="630.5" x2="1440" y2="630.5" id="Line-3-Copy-105"></line>
                            <line x1="0" y1="636.5" x2="1440" y2="636.5" id="Line-3-Copy-106"></line>
                            <line x1="0" y1="642.5" x2="1440" y2="642.5" id="Line-3-Copy-107"></line>
                            <line x1="0" y1="648.5" x2="1440" y2="648.5" id="Line-3-Copy-108"></line>
                            <line x1="0" y1="654.5" x2="1440" y2="654.5" id="Line-3-Copy-109"></line>
                            <line x1="0" y1="660.5" x2="1440" y2="660.5" id="Line-3-Copy-110"></line>
                            <line x1="0" y1="666.5" x2="1440" y2="666.5" id="Line-3-Copy-111"></line>
                            <line x1="0" y1="672.5" x2="1440" y2="672.5" id="Line-3-Copy-112"></line>
                            <line x1="0" y1="678.5" x2="1440" y2="678.5" id="Line-3-Copy-113"></line>
                            <line x1="0" y1="684.5" x2="1440" y2="684.5" id="Line-3-Copy-114"></line>
                            <line x1="0" y1="690.5" x2="1440" y2="690.5" id="Line-3-Copy-115"></line>
                            <line x1="0" y1="696.5" x2="1440" y2="696.5" id="Line-3-Copy-116"></line>
                            <line x1="0" y1="702.5" x2="1440" y2="702.5" id="Line-3-Copy-117"></line>
                            <line x1="0" y1="708.5" x2="1440" y2="708.5" id="Line-3-Copy-118"></line>
                            <line x1="0" y1="714.5" x2="1440" y2="714.5" id="Line-3-Copy-119"></line>
                            <line x1="0" y1="720.5" x2="1440" y2="720.5" id="Line-3-Copy-120"></line>
                            <line x1="0" y1="726.5" x2="1440" y2="726.5" id="Line-3-Copy-121"></line>
                            <line x1="0" y1="732.5" x2="1440" y2="732.5" id="Line-3-Copy-122"></line>
                            <line x1="0" y1="738.5" x2="1440" y2="738.5" id="Line-3-Copy-123"></line>
                            <line x1="0" y1="744.5" x2="1440" y2="744.5" id="Line-3-Copy-124"></line>
                            <line x1="0" y1="750.5" x2="1440" y2="750.5" id="Line-3-Copy-125"></line>
                            <line x1="0" y1="756.5" x2="1440" y2="756.5" id="Line-3-Copy-126"></line>
                            <line x1="0" y1="762.5" x2="1440" y2="762.5" id="Line-3-Copy-127"></line>
                            <line x1="0" y1="768.5" x2="1440" y2="768.5" id="Line-3-Copy-128"></line>
                            <line x1="0" y1="774.5" x2="1440" y2="774.5" id="Line-3-Copy-129"></line>
                            <line x1="0" y1="780.5" x2="1440" y2="780.5" id="Line-3-Copy-130"></line>
                            <line x1="0" y1="786.5" x2="1440" y2="786.5" id="Line-3-Copy-131"></line>
                            <line x1="0" y1="792.5" x2="1440" y2="792.5" id="Line-3-Copy-132"></line>
                            <line x1="0" y1="798.5" x2="1440" y2="798.5" id="Line-3-Copy-133"></line>
                            <line x1="0" y1="804.5" x2="1440" y2="804.5" id="Line-3-Copy-134"></line>
                            <line x1="0" y1="810.5" x2="1440" y2="810.5" id="Line-3-Copy-135"></line>
                            <line x1="0" y1="816.5" x2="1440" y2="816.5" id="Line-3-Copy-136"></line>
                            <line x1="0" y1="822.5" x2="1440" y2="822.5" id="Line-3-Copy-137"></line>
                            <line x1="0" y1="828.5" x2="1440" y2="828.5" id="Line-3-Copy-138"></line>
                            <line x1="0" y1="834.5" x2="1440" y2="834.5" id="Line-3-Copy-139"></line>
                            <line x1="0" y1="840.5" x2="1440" y2="840.5" id="Line-3-Copy-140"></line>
                            <line x1="0" y1="846.5" x2="1440" y2="846.5" id="Line-3-Copy-141"></line>
                            <line x1="0" y1="852.5" x2="1440" y2="852.5" id="Line-3-Copy-142"></line>
                            <line x1="0" y1="858.5" x2="1440" y2="858.5" id="Line-3-Copy-143"></line>
                            <line x1="0" y1="864.5" x2="1440" y2="864.5" id="Line-3-Copy-144"></line>
                            <line x1="0" y1="870.5" x2="1440" y2="870.5" id="Line-3-Copy-145"></line>
                            <line x1="0" y1="876.5" x2="1440" y2="876.5" id="Line-3-Copy-146"></line>
                            <line x1="0" y1="882.5" x2="1440" y2="882.5" id="Line-3-Copy-147"></line>
                            <line x1="0" y1="888.5" x2="1440" y2="888.5" id="Line-3-Copy-148"></line>
                            <line x1="0" y1="894.5" x2="1440" y2="894.5" id="Line-3-Copy-149"></line>
                            <line x1="0" y1="900.5" x2="1440" y2="900.5" id="Line-3-Copy-150"></line>
                            <line x1="0" y1="906.5" x2="1440" y2="906.5" id="Line-3-Copy-151"></line>
                            <line x1="0" y1="912.5" x2="1440" y2="912.5" id="Line-3-Copy-152"></line>
                            <line x1="0" y1="918.5" x2="1440" y2="918.5" id="Line-3-Copy-153"></line>
                            <line x1="0" y1="924.5" x2="1440" y2="924.5" id="Line-3-Copy-154"></line>
                            <line x1="0" y1="930.5" x2="1440" y2="930.5" id="Line-3-Copy-155"></line>
                            <line x1="0" y1="936.5" x2="1440" y2="936.5" id="Line-3-Copy-156"></line>
                            <line x1="0" y1="942.5" x2="1440" y2="942.5" id="Line-3-Copy-157"></line>
                            <line x1="0" y1="948.5" x2="1440" y2="948.5" id="Line-3-Copy-158"></line>
                            <line x1="0" y1="954.5" x2="1440" y2="954.5" id="Line-3-Copy-159"></line>
                            <line x1="0" y1="960.5" x2="1440" y2="960.5" id="Line-3-Copy-160"></line>
                            <line x1="0" y1="966.5" x2="1440" y2="966.5" id="Line-3-Copy-161"></line>
                            <line x1="0" y1="972.5" x2="1440" y2="972.5" id="Line-3-Copy-162"></line>
                            <line x1="0" y1="978.5" x2="1440" y2="978.5" id="Line-3-Copy-163"></line>
                            <line x1="0" y1="984.5" x2="1440" y2="984.5" id="Line-3-Copy-164"></line>
                            <line x1="0" y1="990.5" x2="1440" y2="990.5" id="Line-3-Copy-165"></line>
                            <line x1="0" y1="996.5" x2="1440" y2="996.5" id="Line-3-Copy-166"></line>
                            <line x1="0" y1="1002.5" x2="1440" y2="1002.5" id="Line-3-Copy-167"></line>
                            <line x1="0" y1="1008.5" x2="1440" y2="1008.5" id="Line-3-Copy-168"></line>
                            <line x1="0" y1="1014.5" x2="1440" y2="1014.5" id="Line-3-Copy-169"></line>
                        </g>
                    </g>
                </g>
            </g>
        </g>
    </g>
</svg>